<?xml version="1.0" encoding="UTF-8"?>
<svg id="Layer_2" data-name="Layer 2" xmlns="http://www.w3.org/2000/svg" viewBox="0 0 1447.99 543.14">
  <g id="Layer_1-2" data-name="Layer 1">
    <g>
      <path d="m1327.51,486.56c11.47.72,21.93,1.06,32.32,2.1,25.02,2.49,50.02,5.17,74.98,8.13,4.5.53,8.8,2.77,13.19,4.22-.02.77-.04,1.54-.06,2.31-2.76,1.23-5.41,3.05-8.3,3.58-14.56,2.71-29.1,5.8-43.79,7.47-78.36,8.91-157.09,12.64-235.82,16.2-136.51,6.18-273.09,9.87-409.73,11.19-110.8,1.07-221.62,1.6-332.43,1.28-70.81-.21-141.63-1.66-212.4-3.95-53.1-1.72-106.15-5.42-159.18-8.8-12.9-.82-25.69-3.68-38.47-5.9-2.72-.47-5.21-2.26-7.8-3.44v-1.83c2.77-1.22,5.44-3.04,8.34-3.56,15.55-2.82,31.07-6.26,46.77-7.76,40.46-3.87,81.01-6.82,121.52-10.15,1.08-.09,2.16-.26,3.28-.4-.15-.69-.1-1.15-.29-1.29-23.14-17.53-35.67-41.78-43.25-68.99-1.33-4.77-3.42-6.12-8.1-6.28-13.48-.45-26.96-1.34-40.42-2.26-8.48-.58-9.73-1.93-7.56-10.25,2.94-11.27,6.68-22.32,10.09-33.46,1.61-5.25,3.08-10.56,4.99-15.71,1.19-3.21.16-5.08-2.06-7.39-8.44-8.75-16.73-17.64-24.81-26.73-2.21-2.48-4.31-3.54-7.61-3.51-9.7.11-18.43-2.3-24.82-10.41-4.29-5.44-4.21-9.26,1.15-13.69,7.42-6.12,16.41-8.65,25.58-10.65,2.26-.49,4.53-.9,7.36-1.47-.67-2.02-1.21-3.71-1.79-5.38-8.35-23.9-16.65-47.81-25.08-71.68-2.76-7.81-1.64-13.28,6.68-19.58,28.74-21.76,62.72-28.55,96.29-36.81,20.37-5.02,40.92-9.3,61.37-13.99,1.71-.39,3.77-.95,4.86-2.15,7.59-8.38,17.51-12.38,28.19-13.78,17.15-2.25,34.41-4.36,51.68-4.94,38.3-1.27,76.63-1.59,114.95-2.17,3.34-.05,5.49-.66,6.94-4.07,3.68-8.65,10.44-13.12,19.76-14.89,34.31-6.48,68.82-7.89,103.5-4.38,6.3.64,10.9-.31,15.57-4.85,8.11-7.89,16.95-15.03,25.45-22.52,4.84-4.26,9.64-8.35,12.93-14.28,3.9-7.03,10.72-11.8,18.24-14.13,13.47-4.17,27.14-8.01,40.98-10.61C736.03,8.98,822.1.98,909,.03c70.82-.77,138.76,12.4,205.07,36.06,20.71,7.39,41.35,14.97,62.2,21.92,11.84,3.95,21.48,10.67,28.96,20.38,8.23,10.68,15.81,21.87,23.95,32.62,7.34,9.69,14.82,19.29,22.74,28.5,2.39,2.78,6.26,4.91,9.85,5.95,32,9.2,64.1,18.06,96.16,27.08,2.88.81,5.59,2.2,8.47,3,13.94,3.85,22.51,13.39,28.49,26.04,9.42,19.93,14.63,41.03,18.03,62.68.16.99.08,2.06.44,2.96,2.63,6.47,1.82,12.03-5.01,16.3,6.95,3.56,6.9,8.88,4.72,14.37-3.01,7.57-5.99,15.21-9.91,22.31-1.96,3.55-5.99,5.95-9.06,8.89-1.28,1.23-2.66,2.4-3.7,3.81-4.76,6.41-8.72,13.6-14.33,19.15-5.31,5.25-12.02,9.32-18.66,12.89-3.33,1.79-4.35,3.15-4.44,6.87-.47,18.29-.43,36.67-2.39,54.82-2.3,21.37-8.42,41.79-23.08,59.94ZM492.94,114.05c4.58-.77,9.2-1.33,13.72-2.37,4.02-.93,5.48-5.27,4.68-11.76-.51-4.1-3.52-3.94-6.31-3.91-23.52.2-46.98,1.17-70.05,6.35-1.27.29-2.5.81-3.74,1.22,4.56.57,8.88.78,13.18.53,19.13-1.09,38.24-2.37,57.37-3.37,1.51-.08,4.18,1.17,4.44,2.26.68,2.78-.9,4.42-4.1,4.82-10.08,1.24-20.11,2.91-30.2,4.16-20.16,2.51-40.28,6.03-60.52,7.02-45.09,2.2-90.26,2.74-135.37,4.75-13.38.6-26.73,3.41-39.94,5.98-7.69,1.5-14.86,4.84-19.98,11.46-.96,1.24-3.05,1.86-4.74,2.25-19.49,4.42-39.01,8.71-58.51,13.1-4.1.92-8.14,2.08-12.2,3.12,25.41-3.99,50.64-8.52,75.84-13.22,1.79-.33,3.66-1.63,4.95-2.99,4.66-4.91,10.18-8.16,16.88-8.94,22.48-2.64,44.97-5.33,67.49-7.58,10.2-1.02,20.51-1.06,30.76-1.55-19.88,2.22-39.83,3.64-59.6,6.3-12.99,1.74-25.77,5.12-38.57,8.09-2.1.49-3.81,2.64-5.69,4.02,2.07,1.14,4.03,2.98,6.22,3.29,5.59.81,11.27,1.3,16.91,1.28,52.99-.21,105.98-.54,158.97-.91,1.76-.01,3.77-.25,5.23-1.12,14.38-8.52,30.29-11.13,46.56-11.59,31.14-.89,62.32-2.14,93.45-1.71,82.3,1.15,164.59,2.88,246.88,4.91,25.49.63,50.94,2.94,76.4,4.48-2.38.77-4.71.77-7.04.77-79.31.17-158.63.33-237.94.55-5.16.01-10.32.44-15.47.9-1.55.14-3.04,1.03-4.56,1.58.69,1.59,1.12,3.37,2.11,4.73,2.35,3.21,5.45,5.96,7.41,9.38,6.47,11.26,12.7,22.67,18.74,34.17,1.65,3.13,3.78,4.56,7.11,5.41,19.68,5.05,38.63,2.37,57.32-4.67,11.21-4.22,22.59-8.02,33.89-12,.63-.22,1.28-.42,1.93-.49.63-.07,1.28.04,1.92.07-11.71,5.06-22.14,11.42-29.63,21.75-7.22,9.96-13.48,20.41-16.85,32.22l1.64,1.32c3.25-1.84,6.51-3.68,9.85-5.57-16.82,23.89-33.32,47.71-50.25,71.22-12.2,16.94-25.58,32.87-42.46,45.55-1.52,1.14-1.38,4.47-2.01,6.79,1.99-.44,4.4-.3,5.89-1.41,17.38-12.83,30.94-29.25,43.15-46.85,14.53-20.95,28.16-42.55,43.43-62.94,25.41-33.93,57.94-52.82,102.22-45.35,35.88,6.05,58.35,26.23,66.05,61.78,2.38,11,3.48,22.4,4,33.66,1.16,25.45-4.51,49.6-15.45,72.59-3.24,6.82-1.22,9.91,6.32,10.54,1.16.1,2.33.11,3.5.11,101.65.14,203.31.28,304.96.41,6.5,0,13,.09,19.49-.21,1.48-.07,2.9-1.56,4.34-2.4-1.36-1.24-2.53-2.95-4.13-3.6-1.59-.65-3.61-.29-5.44-.29-80.82.04-161.65.13-242.47.11-25.66,0-51.32-.27-76.98-.46-5.98-.04-6.72-1.07-4.02-5.85,11.66-20.61,15.71-42.91,15.56-66.34-.18-28.41-5-55.57-21.9-79.11-6.99-9.73-15.75-18.18-23.24-26.69,37.85,16.45,79.24,21.28,121.25,23.44v17.43c-2.08,0-3.87.1-5.65-.02-13.63-.87-27.26-1.89-40.9-2.61-4.63-.25-9.34-.13-13.93.46-4.38.57-5.14,2.67-2.31,6.15,2.4,2.94,5.17,5.7,8.22,7.95,14.69,10.84,31.42,16.71,49.39,18.85,4.74.56,5.66,2.26,5.41,6.49-.58,9.81-.78,19.65-1.13,29.47-.57,16.02-1.68,31.95-7,47.27-.5,1.45-.61,3.05-.89,4.57,5.61-9.89,9.55-20.33,10.24-31.52,1.24-20.28,2.62-40.61,2.51-60.91-.13-25.58,2.74-51.24-1.67-76.77-1.47-8.51-1.84-17.21-2.48-25.85-.29-3.95-2.18-5.76-5.9-6.82-5.16-1.47-10.14-3.57-15.19-5.39.09-.56.19-1.13.28-1.69,3.73-.38,7.46-.76,11.19-1.14-154.13-12.66-308.17-25.78-462.83-29.13Zm521.52,29.22c-.31.65-.62,1.3-.93,1.95,1.76.9,3.44,2.37,5.3,2.63,28.7,4.03,57.42,7.9,86.14,11.8,19.94,2.71,39.89,5.42,59.84,8.13,0,.5,0,1,0,1.5-2.69,0-5.4.2-8.07-.04-7.3-.65-14.59-1.39-21.87-2.26-37.88-4.52-75.75-9.05-113.61-13.67-5.61-.68-10.99-2.03-15.51,3.26-1.26,1.47-4.28,1.92-6.51,1.96-4.64.09-9.31-.16-13.92-.74-4.85-.6-9.64-1.74-14.82-2.72.14,1.66.27,2.63.29,3.6.41,19.12,7.84,37.5,5.97,56.86-.29,3.02,1.8,2.98,3.86,3.19,15.91,1.59,31.82,3.25,47.73,4.85,51.22,5.12,102.44,10.21,153.66,15.35,6.9.69,13.77,1.58,20.65,2.37v15.43c-75.56-7.45-150.74-14.86-226.37-22.32v32.09c75.61,5.18,150.96,10.34,226.74,15.53-1.48,24.07,2.48,47.73-5.7,70.58,4.86-9.49,8.99-19.18,9.05-29.89.16-30.82.07-61.64.02-92.46,0-1.78-.21-3.72-.93-5.31-3.12-6.93-6.7-13.67-9.63-20.68-1.46-3.5-3.33-5.17-7.17-5.58-11.76-1.27-23.45-3.08-35.21-4.36-6.11-.66-9.52-4.24-11.87-9.36-1.53-3.34-.72-5.07,3.31-4.68,10.61,1.02,21.23,1.93,31.84,2.89,3.03.27,6.06.56,9.09.84.33-.53.66-1.06.99-1.59-4.05-4.24-7.85-8.76-12.23-12.62-3.39-2.98-5.91-6.71-11.57-7.4-39.68-4.85-79.28-10.31-118.91-15.53-9.87-1.3-19.77-2.42-29.65-3.62Zm256.01,120.74c-1.89,3.29-4.11,6.44-5.62,9.89-9.71,22.09-19.32,44.23-28.86,66.4-7.72,17.92-15.24,35.92-28.68,50.61-.77.84-.62,2.53-.89,3.83,1.29-.3,3.13-.16,3.79-.97,4.08-5.03,8.75-9.84,11.63-15.54,7.81-15.43,14.97-31.2,22.09-46.96,7.68-16.98,14.67-34.29,22.67-51.12,4.75-10,11.83-18.52,21.18-24.84,24.89-16.8,55.18-5.77,63,23.06,1.21,4.47,2.41,9.22,2.13,13.75-.75,12.27-2.24,24.49-3.54,36.72-.97,9.11-2.56,18.22.34,27.25.53,1.64,1.67,3.08,2.52,4.61.56-.19,1.11-.39,1.67-.58-.14-1.29-.3-2.58-.41-3.88-.61-6.88-1.99-13.81-1.6-20.63.46-8.1,2.33-16.13,3.79-24.16,3.87-21.39.33-41.09-13.07-58.61-.83-1.08-1.63-2.18-2.45-3.27.49-.33.98-.67,1.46-1,4.76,6.86,9.53,13.72,14.03,20.22,1.34-3.49,1.63-3.85,6.46-3.49,6.14.46,12.27,1.13,18.38,1.94,8.68,1.14,17.33,2.48,26.78,3.86-.87-5.05-1.49-9.11-2.27-13.14-3.42-17.85-7.23-35.56-15.12-52.15-5.62-11.82-13.72-20.09-26.56-24.55-41.61-14.46-84.1-25.42-127.05-35.05-24.22-5.43-43.54,3.74-63.15,16.94,1.83,2.08,3.49,4,5.19,5.89,3.44,3.81,6.83,7.66,10.39,11.35,1.73,1.8,3.58,3.74,5.77,4.79,6.54,3.13,8.45,11.04,3.19,15.64,2.53,6.03,4.11,12.88,7.93,18.09,4.43,6.05,5.39,12.31,5.24,19.15-.08,3.42,1.19,4.46,4.55,4.8,20.81,2.08,41.24-.38,61.54-4.71,2.92-.62,5.87-1.1,8.81-1.65-7.84,4.8-15.8,8.92-23.7,13.15-11.41,6.1-23.57,9.04-36.5,8.89-4.43-.05-8.86,0-13.42,0v23.36c21.92,1.67,42.35-.21,58.35-17.85ZM901.38,30.56c-.09-.73-.17-1.46-.26-2.19-12.45,0-24.9.12-37.35-.02-44.72-.53-89.29,2.36-133.63,7.66-34.86,4.17-69.5,10.15-104.21,15.52-9.62,1.49-17.82,5.92-24.67,13.13-7.69,8.08-15.87,15.69-23.87,23.48-3.78,3.67-7.63,7.26-11.57,11q5.95,4.04,10.13-.05c6.82-6.67,9.36-7.03,17.8-2.5.59.31,1.15.67,1.73.99,8.82,4.87,14.09,4.32,22.01-1.83,2.57-2,5.45-4.16,8.51-4.89,7.09-1.7,14.38-2.64,21.6-3.76,1.77-.27,3.62-.04,5.44-.04.08.37.15.74.23,1.11-9.39,7.8-18.78,15.6-28.18,23.41l.37,1.35c2.41,0,4.88-.33,7.23.06,6.42,1.08,11.29-1.18,16.3-5.23,15.92-12.89,32.32-25.19,48.38-37.92,3.33-2.64,6.85-4.08,10.57-2.43,5.84,2.59,12.22,4.98,16.8,9.17,9.75,8.95,20.74,10.65,32.95,8.45,4.66-.84,9.21-2.23,13.81-3.38l.43.75c-16.04,12.38-32.08,24.76-48.13,37.14,14.09,2.2,27.52,3.43,40.97,4.24,2.54.15,5.62-.73,7.71-2.19,34.37-24.1,68.63-48.36,102.91-72.59,8.67-6.13,17.33-12.29,25.99-18.44Zm307.19,450.91c-10.15-14.55-15.97-30.38-19.7-47.07-1.58-7.05-1.59-7.2-8.92-7-8.46.23-16.65.02-23.53-6.08-1.14-1.01-3.42-.99-5.18-1-17.82-.07-35.64-.13-53.46.07-2.42.03-5.25,1-7.15,2.49-8.47,6.65-17.79,9.86-28.66,9.76-29.15-.26-58.3-.14-87.44-.04-3.96.01-7.97.47-11.85,1.27-11.41,2.35-22.68,5.59-34.17,7.29-8.41,1.24-13.98,3.93-15.2,13.14-.47,3.5-2.47,6.88-4.13,10.13-2.39,4.67-5.11,9.16-7.72,13.78,102.31,1.09,204.3,2.17,307.12,3.26ZM102.38,360.05c-1.99,6.03-3.9,11.65-5.69,17.3-2.81,8.88-5.82,17.71-8.17,26.72-1.45,5.56.21,7.29,5.94,7.6,30.61,1.64,61.2,4.11,91.82,4.63,63.79,1.09,127.6,1.73,191.39,1.39,37.96-.2,75.89-2.77,113.85-4.01,18.05-.59,34.4-5.69,47.11-18.69,16.68-17.07,32.52-34.95,49.64-53.46-2.38.69-3.49.96-4.56,1.34-42.08,14.85-85.25,25.3-129.52,30.74-14.8,1.82-28.03,5-39.95,15.11-15.26,12.93-33.8,18.86-54.06,19.09-46.97.54-93.94,1.28-140.91,1.93-1.33.02-2.67-.02-4-.12-4.79-.36-5.41-1.4-3.08-5.5,1.52-2.67,3.25-5.23,5.46-8.76-3.12,0-5.22.04-7.31,0-13.99-.31-27.99-1.06-41.96-.8-9.17.17-15.84-3.23-20.55-10.7-2.07-3.29-4.87-4.59-8.46-5.34-12.92-2.7-24.78-7.71-34.62-16.82-.57-.53-1.3-.9-2.38-1.63Zm225.95,129.35c110.32-2.98,219.96-5.94,328.88-8.89-5.84-10.41-11.93-20.69-17.36-31.31-1.81-3.55-3.65-4.67-7.49-4.65-35.82.15-71.64.29-107.46-.1-6.1-.07-12.31-2.24-18.21-4.23-2.72-.92-4.43-1.09-6.66.68-6.5,5.15-13.95,7.47-22.29,7.4-15.99-.14-31.98-.06-47.97-.02-5.31.01-10.21-.82-14.35-4.63-1.04-.96-3.03-1.25-4.59-1.26-16.16-.09-32.32.02-48.48-.12-3-.03-4.38,1.05-5.47,3.77-5.33,13.22-12.43,25.42-21.89,36.16-2.05,2.32-4.2,4.56-6.65,7.21Zm387.49-113.34c1.69,11.84,2.64,23.85,5.23,35.49,4.56,20.52,13.07,39.26,29.44,53.32,18.74,16.11,41.76,15.79,60.35-.51,9.45-8.29,16.25-18.52,21.19-29.96,12.72-29.42,14.81-59.91,8.33-91.07-4.04-19.38-11.53-37.24-25.42-51.82-20.36-21.38-47.63-21.77-68.36-.77-4.41,4.46-8.33,9.59-11.62,14.94-13.23,21.5-17.84,45.33-19.15,70.37Zm-242.27-106.24c-.19-.84-.39-1.68-.58-2.52-2.39,0-4.78-.1-7.17.01-57.75,2.66-115.53,4.83-173.25,8.17-65.35,3.78-130.66,8.38-195.94,13.19-14.55,1.07-28.96,4.28-43.36,6.97-3.79.71-7.42,2.85-10.79,4.89-1.14.69-1.23,3.11-1.8,4.73,1.43.42,2.89,1.3,4.27,1.18,9.13-.76,18.22-2.04,27.36-2.6,70.67-4.4,141.31-9.29,212.02-12.81,67.05-3.34,134.17-5.74,201.28-7.56,52.79-1.43,105.61-1.39,158.42-1.88,4.44-.04,9.06.38,13.31,1.59,6.05,1.71,8.09,1.05,10.83-6.57-63.12-3.1-125.77-.65-188.38,1.37-62.65,2.03-125.27,4.95-187.9,7.48.42-.54.88-.73,1.35-.76,28.58-2.05,57.15-4.13,85.74-6.12,28.58-1.99,57.18-3.83,85.75-5.95,3-.22,5.9-1.85,8.84-2.82Zm146.83-63.39c.56-.07,1.12-.15,1.68-.22,2.05,8.34,4.64,16.59,6.01,25.04,1.88,11.57-2.87,19.32-13.78,23.56-3.82,1.49-8.03,2.67-12.09,2.76-31.64.76-63.28,1.22-94.92,1.74-.89.01-1.79-.35-2.68-.53-.08-.4-.16-.81-.24-1.21,9.01-3.08,18.03-6.17,27.04-9.25-1.42-.52-2.75-.61-3.95-.25-11.79,3.5-23.56,7.06-35.33,10.63-.79.24-1.7.53-2.21,1.1-.82.91-2,2.22-1.82,3.11.19.9,1.75,1.78,2.88,2.16,1.22.41,2.63.28,3.96.29,13.33.07,26.66.37,39.98.13,24.32-.44,48.65-.79,72.93-1.97,20.9-1.02,30.77-13.17,28.35-33.77-2.19-18.67-10.61-34.89-20.64-50.4-.82-1.27-1.57-2.58-2.36-3.87.31-.27.62-.54.93-.8,8.17,5.58,16.34,11.17,24.51,16.75.37-.22.75-.45,1.12-.67-5.81-9.75-11.61-19.51-17.44-29.24-.24-.39-.77-.63-1.2-.89-14.26-8.66-30.07-12.09-46.42-13.74,10.28,3.61,21.06,5.98,30.24,12.33-48.45-3.25-96.82-3.84-145.96-3.16,3.48,4.57,6.73,6.88,12.09,6.65,10.81-.45,21.66-.4,32.48-.08,26.64.78,53.27,1.77,79.9,2.79,5.6.21,10.36,2.54,15.17,7.5-16.53-4.14-27.79,1.89-35.18,14.99-8.83,15.65-8.81,31.94-.41,47.79,5.36,10.11,13.54,17.01,25.72,17.03,12.38.01,20.42-7.11,26.12-17.28,5.04-8.98,6.45-18.79,5.49-29Zm512.3-102.36c-5.68-13.21-11.36-26.7-17.37-40.04-.71-1.58-3.08-2.92-4.93-3.4-24.19-6.21-48.41-12.34-72.67-18.28-8.67-2.12-17.48-3.67-26.52-5.55-2.83,10.55-5.49,20.46-8.54,31.82,5.27,0,9.82.31,14.32-.07,6.74-.57,11.67,1.85,15.02,7.66.75,1.3,1.62,2.52,2.38,3.81,3.21,5.47,7.57,7.86,14.17,6.58,7.18-1.39,10.07.44,13.18,6.83,5.29,10.88,7.63,12.08,19.87,10.81,3.2-.33,6.47-.05,10.32-.05-4.75,14.39-9.29,28.16-13.94,42.25,2.56.48,4.38.67,6.12,1.18,3.78,1.11,5.78-.09,6.77-4.01,1.1-4.35,2.78-8.54,4.24-12.8,5.01-14.63,10.04-29.26,15.04-43.84,4.18.45,3.75,2.57,2.82,5.34-5.7,16.88-11.3,33.8-16.91,50.71-.56,1.68-.98,3.4-1.46,5.11,3.82,1.69,6.15,1.22,6.97-2.89.35-1.78,1.14-3.48,1.73-5.21,4.02-11.79,8.04-23.57,12.15-35.59,1.55.44,2.73.56,3.7,1.08,3.23,1.75,6.23,3.49,8.83-1.08.39-.68,2.74-.25,4.72-.37Zm144.03,283.15c1.39,12.39,2.32,24.86,4.31,37.15,2.09,12.87,5.77,25.39,13.64,36.15,8.7,11.9,19.69,12.23,28.04.18,4.38-6.32,7.89-13.62,10.13-20.99,9.24-30.43,9.5-61.37,3.4-92.42-2.42-12.32-6.02-24.32-13.92-34.42-8.39-10.72-18.89-10.85-26.86.17-4.03,5.58-7.19,12.04-9.54,18.53-6.49,17.9-8.31,36.62-9.19,55.65ZM122.46,343.94c0-.34,0-.69,0-1.03,1.76-.91,3.87-1.49,5.15-2.85.89-.95,1.4-3.5.76-4.45-8.83-13.21-22.36-18.03-37.97-13.59,3.63,8.71,9.61,15.35,18.44,21.01-15.12.48-21.34-11.74-31.16-18.02,1.79,3.07,3.96,5.71,6.05,8.4,7.04,9.05,16.08,14.32,27.69,14.79,5.99.24,11.98.6,17.98.73,2.68.06,3.74,1.28,5.06,3.66,5.8,10.44,11.97,20.68,18.28,30.83,2.22,3.56,5.79,5.17,10.22,5.17,6.33,0,12.65.55,18.98.72,46.19,1.21,92.3-.41,138.36-3.85,6.61-.49,7.51-2.06,4.71-8.27-4.63-10.28-9.3-20.54-14.15-31.25,1.69-.18,2.78-.36,3.89-.41,14.32-.57,28.64-1.03,42.96-1.69,29.46-1.36,58.92-2.55,88.36-4.33,18.48-1.11,39.2-17.04,44.02-32.96-20.7.58-41.33,1.1-61.96,1.88-1.17.04-3.15,2.09-3.24,3.32-.38,5.11-.28,10.27-.16,15.4.1,3.97,2.25,5.35,6.25,5.05,10.81-.8,21.65-1.29,32.47-1.9-5.74,2.33-11.73,4.51-17.82,4.81-39.94,2-79.89,3.99-119.86,5.21-51.63,1.58-103.28,2.52-154.92,3.56-16.12.32-32.26.05-48.39.05Zm431.88-250.1c2.9,3.06,5,2.29,7.46-.06,13-12.43,25.89-25.01,39.34-36.95,4.31-3.82,9.92-7.38,15.44-8.44,33.01-6.36,66.04-12.78,99.3-17.6,43.06-6.24,86.51-8.65,130-9.72,39.66-.98,79.3-.73,118.8,3.6,9.19,1.01,9.58,1.58,6.69,10.55-9.14,28.37-18.27,56.74-27.41,85.11-2.36,7.31-3.79,8.36-11.5,8.24-20.99-.32-41.97-.8-62.96-.98-19.78-.17-39.56-.04-59.35-.04.64-.29,1.29-.21,1.94-.17,31.44,1.65,62.88,3.33,94.32,4.94,11.15.57,22.3,1.17,33.45,1.32,7.52.1,9.76-1.91,11.85-8.86,6.17-20.57,12.32-41.15,18.49-61.72,3.21-10.68,6.56-21.33,9.62-32.05,2.28-7.99-.9-13.12-8.37-13.45-34.94-1.54-69.87-3.9-104.83-4.2-83.61-.71-166.22,9.02-247.9,26.61-5.56,1.2-11.24,4.4-15.59,8.15-11.08,9.57-21.44,19.99-32.1,30.05-5.53,5.23-11.09,10.43-16.7,15.69Zm236.41,28.14l.71,1.79c2.94-1.14,6.23-1.78,8.78-3.51,30.49-20.62,60.91-41.35,91.24-62.21,3.69-2.54,7.22-3.07,11.26-1.76,7.42,2.41,14.69,5.92,22.98,3.25-30.07,20.62-60.15,41.24-91.41,62.67,9.17.68,16,.38,22.78-4.45,15.73-11.2,32.1-21.5,48.22-32.16,6.63-4.39,13.28-8.76,20.36-13.43,1.51,10.47,10.12,11.56,17.61,15.11v9.57c.77-.97,1.2-1.3,1.34-1.72,5.83-18.06,11.62-36.13,17.45-54.19,1.42-4.4-.36-6.92-4.69-7.39-10.75-1.17-21.51-2.29-32.3-2.97-2.54-.16-5.6.87-7.72,2.36-30.73,21.45-61.35,43.06-91.99,64.64-11.55,8.13-23.09,16.27-34.63,24.4Zm-380.79,30.98c-2.14,0-3.89-.02-5.64,0-58.95.65-117.9,1.26-176.85,1.98-12.47.15-25.09-.36-37.38,1.34-24.89,3.44-49.56,8.45-74.39,12.3-15.09,2.34-29.65,6.04-43.3,12.97-2.1,1.07-4.1,2.33-6.15,3.5,1.89.72,3.37.66,4.81.42,26.09-4.46,52.15-9.07,78.27-13.39,17.23-2.85,34.46-7.04,51.8-7.64,65.74-2.25,131.52-3.32,197.29-4.66,5.08-.1,9.07-.98,11.55-6.82Zm18.34,28.88c-4.79,2.84-10.57,5.04-14.72,8.95-16.05,15.14-12.63,45.51,6,57.32,12.71,8.05,27.81,3.22,33.41-10.77,3.51-8.78,3.74-17.85,1.99-27.03-4.21-22.17-23.78-38.53-44.32-36.95-8.43.65-14.81,4.71-20.13,12.88,16.03-10.25,29.99-11.37,37.76-4.39ZM1032.03,26.14l.25-1.28c1.73.14,3.51.05,5.19.44,10.38,2.4,20.89,4.4,31.07,7.48,24.04,7.28,47.94,15.06,71.87,22.73,4.9,1.57,8.47,4.81,11.46,9.13,15.27,22.05,30.77,43.94,46.2,65.87,1.02,1.45,2.14,2.82,3.22,4.23.51-.24,1.01-.49,1.52-.73-1.51-3.48-2.54-7.27-4.6-10.37-12.07-18.18-24.38-36.2-36.59-54.28-.93-1.38-1.78-2.83-3.4-5.41,12.04,3.77,22.63,7.09,33.22,10.41.23-.49.45-.97.68-1.46-4.32-2.31-8.45-5.17-13.01-6.85-22.51-8.27-45.03-16.53-67.73-24.25-60.03-20.42-121.11-35.7-185.09-35.61-21.61.03-43.21.59-64.82.91,29.67,1.65,59.34,2.01,88.92,3.8,16.88,1.02,33.66,4.05,50.38,6.79,6.16,1.01,11.81,4.02,12.15,10.71,41.88,10.42,83.1,20.67,124.32,30.92-33.54-15.96-69.56-24.01-105.21-33.18Zm124.54,102.69c-.5.24-1,.47-1.51.71-1.03-2.62-1.96-5.28-3.09-7.85-8.47-19.16-16.95-38.31-25.53-57.42-1.22-2.73-2.64-5.66-6.98-5.74.54,1.44.78,2.38,1.21,3.22,15.17,29.91,26.94,61.17,36.88,93.15,1.38,4.44,4.98,6.1,9.19,4.02,5.07-2.5,10.02-5.25,14.96-8.01,2.24-1.25,4.63-9.54,3.4-11.8-10.18-18.72-20.41-37.47-34.59-53.56-4.42-5.02-10.26-8.78-15.44-13.12l-.64,1.05c7.38,18.45,14.77,36.9,22.15,55.35ZM104.68,204.32c-4.73,3.54-9.48,5.94-12.63,9.68-10.88,12.93-9.09,36.44,3.14,48.11,9.98,9.53,23.76,6.41,28.58-6.48,6.71-17.95-3.54-46.54-20.31-55.63-3.49-1.89-7.8-2.28-11.73-3.36-.12.46-.24.92-.36,1.38,4.56,2.16,9.12,4.32,13.31,6.3Zm367,55.74c5.39-1.46,11.13-.63,14.44-5.97,3.69-5.96,5.64-12.34,4.32-19.49-4.12-22.31-13.42-42.31-26.27-60.9-9.08-13.13-21.56-19.1-37.09-20.23-4.84-.35-7.44,1.45-9.27,6.01,2.51.45,4.75.94,7.03,1.24,14.12,1.82,25.49,7.82,33.11,20.43,8.41,13.89,15.18,28.43,19.78,44.01,3.5,11.87,3.27,23.01-5.53,32.77-.28.31-.24.9-.53,2.15Zm572.91-144.84c-1.21-4.32-1.73-8.73-3.71-12.33-1.31-2.38-4.55-4.74-7.23-5.15-11.81-1.83-23.59-.96-35.02,2.68-11.08,3.53-13.39,10.15-6.6,19.68,2.43,3.41,2.41,6.1-.28,8.75-3.53,3.49-7.29,6.76-11.11,9.94-2.66,2.22-2.3,3.79.63,5.1,4.26,1.9,8.7,2.55,11.71-1.75,3.3-4.71,6.04-9.85,8.65-14.98.47-.93-.57-2.97-1.4-4.16-1.7-2.44-3.91-4.54-5.57-7-2.04-3.04-1.73-5.41,2.62-5.63,2.65-.13,5.35-.43,7.96-.12,12.69,1.51,25.35,3.2,39.36,5Zm-58.2-95.11c-.52.45-1.04.91-1.57,1.36,1.45,2.62,2.3,6.69,4.46,7.58,4.97,2.04,6.57,4.47,4.42,9.38-.59,1.36-.85,2.86-1.26,4.3-7.32,25.91-14.68,51.82-21.94,77.75-1.27,4.53-2.91,9.16.06,14.8.86-2.49,1.49-4.14,2-5.82,9.38-31.03,18.76-62.06,28.12-93.09,2.3-7.63,1.08-10.32-6.39-13.53-2.56-1.1-5.27-1.83-7.91-2.72ZM162.91,421.2c7.49,25.25,16.71,49.31,38.41,66.14,8.67,6.73,18.56,10.81,29.83,12.38-.41-.7-.49-1.09-.72-1.2-1.49-.73-3-1.42-4.52-2.1-10.65-4.73-19.94-11.35-27.75-20.01-12.91-14.32-20.24-31.53-25.67-49.71-1.94-6.51-1.92-6.52-9.58-5.51Zm19.46.09c1.86,5.71,3.43,11.11,5.37,16.38,6.67,18.15,15.39,35.05,30.6,47.71,9.37,7.81,20.07,12.68,32.31,13.91-1.59-1.19-3.34-2.03-5.11-2.82-12.54-5.59-23.12-13.68-31.63-24.49-10.67-13.56-17.4-29.07-21.83-45.56-1.43-5.33-4.06-6.61-9.72-5.13Zm-38.78.04c3.76,14.58,9.08,28.45,16.75,41.39,7.42,12.52,16.86,23.08,29.87,30.04,6.67,3.57,13.69,6.02,21.31,6.46-1.49-1.15-3.12-1.91-4.77-2.63-12.74-5.59-23.44-13.82-32.02-24.77-10.65-13.58-17.12-29.17-21.87-45.58-1.73-5.96-2.09-6.16-9.27-4.92Zm599.38,79.32c-.55-.65-.7-.98-.95-1.09-1.22-.54-2.45-1.04-3.69-1.52-12.58-4.84-22.9-12.76-31.35-23.16-12.11-14.9-19.12-32.23-23.92-50.58-1.28-4.88-2.4-9.81-3.6-14.72-4.63.98-6.19,3.05-4.79,7.24,3.88,11.65,6.75,23.71,11.58,34.94,7.07,16.46,17.85,30.38,33.23,40.21,7.06,4.51,14.66,7.61,23.49,8.68Zm-17.07.79c.11-.5.22-1.01.33-1.51-37.57-13.17-51.82-44.71-62.04-79.51-4.14,1.67-5.86,3.9-4.14,8.14,3.38,8.31,5.99,16.99,9.94,25,8.56,17.36,20.46,32.02,37.99,41.11,5.63,2.92,11.92,4.55,17.91,6.77Zm-16.39-2.11c-33.23-10.85-48.94-36.98-59.15-68.22-2.13,1.22-3.66,2.1-5.11,2.94,9.6,36.1,36.83,64.62,64.26,65.28Zm519.03-81.28c-3.59.9-4.85,3.01-3.75,6.62,3.76,12.39,6.8,25.04,11.36,37.12,3.85,10.19,10.44,18.96,19.77,25.18,5.26,3.5,10.97,5.72,17.53,5.19-12.02-3.71-20.65-11.64-26.58-22.21-4.36-7.79-8.05-16.08-10.99-24.51-3.1-8.89-4.94-18.21-7.35-27.38ZM367.42,174.17c-.64,1.83-.78,2.01-.74,2.14,7.5,28.14,14.98,56.28,22.66,84.37.34,1.23,2.54,1.95,4.17,3.12.51-1.52.64-1.69.6-1.83-7.47-28.31-14.92-56.62-22.57-84.88-.31-1.14-2.45-1.78-4.12-2.92Zm-19.07,2.66c-.5.5-1,1-1.51,1.5,7.81,27.82,15.57,55.66,23.55,83.44.33,1.15,2.61,1.74,4.53,2.93.11-1.89.21-2.24.13-2.54-7.59-27.39-15.15-54.79-22.9-82.13-.37-1.32-2.49-2.14-3.8-3.19Zm847.98,249.91c3.24,17.42,8.26,34.16,18.89,48.75,4.88,6.7,10.88,12.24,18.86,15.06,3.26,1.15,6.76,1.6,10.15,2.37-16.38-6.09-25.56-18.78-31.91-33.69-4.02-9.45-6.71-19.48-9.65-29.36-1.02-3.42-2.22-5.02-6.33-3.14Zm63.49,65.79c-31.36-12.38-36.59-40.97-44.52-68.19-1.43.24-2.82.46-4.33.71,0,1.31-.25,2.36.04,3.24,3.93,12.16,7.37,24.51,12.09,36.35,3.53,8.87,9.66,16.34,17.69,21.87,5.51,3.8,11.51,6.24,19.03,6.01ZM328.48,178.95c-.66,1.84-.8,2.02-.76,2.15,7.81,27.17,15.59,54.36,23.59,81.48.34,1.16,2.67,1.74,4.07,2.59l.94-1.29c-7.88-27.32-15.72-54.65-23.75-81.93-.35-1.18-2.45-1.84-4.1-3Zm7.46,87.37c.35-.43.7-.87,1.05-1.3,0-.33.08-.69-.01-.99-7.9-26.48-15.85-52.94-23.71-79.43-1.02-3.44-2.86-2.87-5.5-1.59,8.14,26.93,16.19,53.68,24.42,80.37.39,1.25,2.46,1.98,3.75,2.95Zm-46.29-82.35c-.46.53-.92,1.06-1.38,1.58,8.28,26.33,16.52,52.67,24.97,78.95.38,1.18,2.58,1.78,4.57,3.06.09-1.91.24-2.43.11-2.86-8.04-25.9-16.07-51.81-24.3-77.66-.42-1.31-2.6-2.07-3.96-3.08Zm8.93,84.6c.33-1.96.42-2.14.37-2.28-8.25-25.67-16.52-51.33-24.75-77-1.04-3.25-2.8-3.07-5.5-1.44,8.47,25.94,16.84,51.72,25.41,77.43.41,1.24,2.53,1.92,4.47,3.29Zm-48.11-79.78c-.44.48-.87.97-1.31,1.45,8.6,25.35,17.16,50.72,25.94,76.01.41,1.19,2.74,1.71,4.17,2.54.3-.44.6-.88.9-1.31-8.53-25.37-17.02-50.76-25.71-76.07-.41-1.19-2.63-1.76-4-2.61Zm-19.43,2.32c-.46.51-.92,1.02-1.38,1.53,8.78,24.92,17.53,49.85,26.47,74.7.41,1.15,2.63,1.66,4.27,2.62.37-1.38.49-1.57.44-1.7-8.59-24.83-17.14-49.68-25.9-74.45-.43-1.21-2.56-1.82-3.9-2.71Zm-74.1,83.82c.45-.41.9-.81,1.34-1.22-1.7-5.37-3.41-10.74-5.11-16.11-6.37-20.15-12.7-40.3-19.15-60.42-.55-1.71-1.92-3.16-2.91-4.73-1.3,1.28-1.54,1.8-1.41,2.2,8.08,25.88,16.18,51.76,24.39,77.6.35,1.09,1.87,1.8,2.85,2.68Zm-11.8-82.51c-.47.38-.94.77-1.41,1.15,1.53,4.89,3.05,9.78,4.61,14.66,6.54,20.43,13.06,40.86,19.68,61.26.65,2.01.6,5.45,4.52,3.88.03-.5.15-.85.06-1.14-8.21-25.65-16.41-51.3-24.73-76.92-.37-1.14-1.79-1.94-2.72-2.89Zm40.89,81c.49-.4.99-.8,1.48-1.2-1.63-5.03-3.26-10.06-4.9-15.08-6.56-20.07-13.09-40.14-19.74-60.18-.65-1.95-.58-5.43-4.88-3.76,8.44,25.92,16.81,51.67,25.29,77.38.37,1.13,1.81,1.9,2.75,2.84Zm-12.36-81.16l-1.13,1.15c1.91,5.83,3.8,11.66,5.73,17.48,6.38,19.25,12.76,38.5,19.18,57.74.67,2.01.91,4.89,4.79,3.02-8.59-25.81-17.11-51.5-25.76-77.15-.32-.95-1.84-1.5-2.8-2.24Zm41.58,79.73c.51-.36,1.03-.72,1.54-1.07-.93-2.8-1.84-5.61-2.78-8.4-7.4-21.89-14.78-43.78-22.26-65.64-.68-1.97-.66-5.34-4.97-3.92,1.38,4.13,2.68,8.04,4,11.95,7.06,20.95,14.09,41.91,21.26,62.82.55,1.6,2.12,2.85,3.21,4.27Zm-12.78-79.88l-1.15.92c.71,2.15,1.38,4.32,2.12,6.46,7.72,22.48,15.45,44.95,23.19,67.42.7,2.04.94,4.84,4.35,3.42.04-.38.12-.56.07-.7-8.54-25-17.06-50-25.71-74.96-.37-1.06-1.88-1.72-2.86-2.57Zm42.45,78.32c.4-.33.79-.66,1.19-1-1.57-4.49-3.15-8.98-4.72-13.47-6.99-19.96-13.98-39.91-20.99-59.86-.71-2.03-1-4.85-4.77-3.16,8.54,24.5,17.03,48.85,25.52,73.2.22.63.3,1.41.73,1.84.92.92,2.02,1.65,3.04,2.46Zm1157.1,24.52l1.6.6c-2.61,7.39-5.21,14.77-7.82,22.16.5.21,1,.43,1.49.64,2.87-6.06,6.03-12,8.54-18.2,3.41-8.43,1.37-11.52-7.71-12.64-1.6-.2-3.25-.03-5.17-.03-.52,3.35-.91,6.46-1.49,9.52-.43,2.31-1.5,4.74,2.18,5.3,2.86.43,5.76,1.05,6.83-2.87.42-1.52,1.02-2.99,1.54-4.48ZM115.16,193.36c1.96,9.71,2.83,11.22,6.81,12.07-2.67-11.27-2.88-11.67-6.81-12.07Zm291.69,58.61c.95,9.4,1.73,10.59,6.31,9.7-.22-4.28-.86-8.24-6.31-9.7Zm-18.54-69.33c4.59-2.06,4.11-5.34,2.57-8.4-.54-1.07-2.74-1.3-5.36-2.4,1.2,4.67,1.97,7.64,2.78,10.8Z"/>
      <path d="m746.9,449.81c1.16.9,2.33,1.79,3.49,2.69,17.07,13.17,37.71,12.74,54.04-1.45,15.57-13.54,23.23-31.46,26.87-51.23,5.04-27.35,2.32-53.78-10.79-78.67-4.96-9.41-11.58-17.49-20.42-23.59-14.51-10.01-31.71-10.17-46.42-.41-2.04,1.35-3.99,2.84-6.33,4.51,5.5-10.99,23.92-19.49,37.36-17.64,10.9,1.5,19.76,6.8,27.17,14.65,14.14,14.98,21.15,33.36,24.37,53.28,4.68,29.03,2.19,57.31-11.88,83.57-4.25,7.92-10.07,15.5-16.72,21.53-19.15,17.34-45.6,14.05-60.73-7.23Z"/>
      <path d="m723.61,360.19c12.67,4.51,24.44,8.63,36.14,12.96,1,.37,1.99,2.14,2.03,3.3.04,1.17-.83,3.11-1.78,3.46-11.81,4.39-23.7,8.56-36.4,13.08v-32.8Z"/>
      <path d="m733.85,324.48c10.7,12.13,20.23,22.77,29.47,33.65,1.09,1.29.64,3.89,1.01,6.74-13.97-4.01-26.53-7.62-40.2-11.55,3.22-9.54,6.25-18.56,9.72-28.83Z"/>
      <path d="m764.76,388.19c-.71,3.27-.51,5.77-1.66,7.12-8.84,10.38-17.95,20.53-26.99,30.74-.42.47-1,.81-2.44,1.94-3.25-9.53-6.31-18.54-9.59-28.15,13.6-3.9,26.15-7.49,40.67-11.65Z"/>
      <path d="m770.57,351.48c-11.42-10.3-22.4-20.19-34.39-31,6.12-6.2,11.33-11.47,17.27-17.48,1.28,2.87,1.99,4.3,2.56,5.78,4.87,12.72,9.77,25.43,14.48,38.21.58,1.58.08,3.56.08,4.49Z"/>
      <path d="m753.72,450.41c-6.19-6.22-11.37-11.41-17.43-17.5,11.92-10.7,23.02-20.67,34.13-30.63-.12-.57-.24-1.15-.36-1.72.33,1.44,1.31,3.12.88,4.28-5.39,14.62-10.98,29.16-17.22,45.58Z"/>
      <path d="m780.61,348.78c-2.06-1.62-3.52-2.18-3.94-3.17-6.01-14.2-11.87-28.45-17.76-42.7-.05-.13.06-.32.22-1.01,5.19-2,10.68-2.02,16.17-.36.99.3,2.26,1.68,2.33,2.64,1.06,14.35,1.95,28.71,2.97,44.6Z"/>
      <path d="m780.53,405.56c-.94,14.66-1.79,28.88-2.89,43.08-.09,1.16-1.86,3.04-2.95,3.11-5.17.33-10.38.15-16.88.15,6.87-16.07,13.21-30.95,19.67-45.78.19-.44,1.67-.33,3.04-.55Z"/>
      <path d="m788.79,353.36c-1.35-2.31-2.49-3.42-2.62-4.63-1.55-14.49-2.94-29-4.49-44.64,7.35,4.14,12.1,9.44,16.04,15.57.31.48.32,1.33.16,1.92-2.87,10.16-5.8,20.31-9.09,31.77Z"/>
      <path d="m789.02,400.63c3.06,10.61,5.95,20.48,8.71,30.39.27.98.1,2.53-.52,3.24-4.42,5.02-9.01,9.9-14.25,15.58-1.65-8.78,2.96-46.09,6.06-49.21Z"/>
      <path d="m794.4,364.71c-.46-2.94-1.26-4.79-.91-6.39,2.06-9.38,4.39-18.7,6.65-28.04.27-1.11.68-2.2,1.3-4.19,4.88,8.62,7.36,17.24,9.09,26.11.14.71-.58,1.91-1.25,2.39-4.57,3.22-9.23,6.3-14.89,10.11Z"/>
      <path d="m795.33,389.09c4.68,3.15,9.38,6.21,13.94,9.47.73.52,1.41,2.06,1.18,2.86-2.42,8.38-5.03,16.71-8.11,24.89-5.29-9.56-9.46-32.8-7-37.22Z"/>
      <path d="m812.13,392.93c-5.57-4.74-10.36-8.14-14.18-12.41-1.36-1.52-1.53-6.19-.25-7.62,3.93-4.38,8.83-7.88,14.43-12.64v32.67Z"/>
      <path d="m601.41,236.43c-9.55,8.44-20.79,8.05-29.12-.46-12.14-12.39-12.09-36.04.14-48.31,4.27-4.29,9.31-6.78,15.78-6.04-7.36,3.37-12.86,8.48-15.81,16.02-2.98,7.63-2.99,15.31-.04,22.93,4.63,11.93,13.68,16.97,29.03,15.86Z"/>
      <path d="m1305.34,314.77c4.98-2.14,9.21-.25,11.98,3.32,3.72,4.8,7.27,10.04,9.48,15.65,7.78,19.69,9.35,40.41,8.57,61.36-.55,14.69-2.21,29.31-7.66,43.06-2.53,6.38-6.37,12.35-10.34,18-2.55,3.62-6.76,5.26-12.18,3.87,15.27-7.54,18.99-21.86,22.18-36.05,5.94-26.4,5.65-52.9-1.39-79.1-1.71-6.36-4.48-12.53-7.47-18.43-2.74-5.41-6.83-9.88-13.17-11.68Z"/>
      <path d="m1301.01,412.48c.97,11.99,2.04,23.98,2.76,35.98.06.97-2.21,2.9-3.41,2.91-1.2,0-3.52-1.91-3.45-2.86.76-12.03,1.86-24.04,2.88-36.05.41,0,.82.01,1.23.02Z"/>
      <path d="m1299.76,361.5c-1-11.73-2.1-23.46-2.82-35.21-.07-1.13,2.23-2.41,3.42-3.62,1.19,1.22,3.46,2.51,3.39,3.66-.7,11.77-1.78,23.51-2.76,35.26-.41-.03-.83-.06-1.24-.09Z"/>
      <path d="m1297.17,411.31c-.81,11.79-1.62,23.59-2.45,35.61-4.77-3.83-7.16-10.73-5.61-15.78,2.06-6.75,4.18-13.48,6.27-20.22.59.13,1.19.26,1.78.39Z"/>
      <path d="m1303.53,364.32c.79-12.28,1.58-24.56,2.38-36.84,4.1,5.18,7.9,10.02,5.24,17.07-2.45,6.49-4.07,13.29-6.06,19.95-.52-.06-1.04-.12-1.56-.18Z"/>
      <path d="m1295.35,363.31c-2.38-7.82-5.65-15.52-6.78-23.53-.56-3.94,2.83-8.43,4.43-12.67.56.11,1.12.21,1.68.32.83,11.82,1.65,23.65,2.48,35.47-.6.14-1.21.27-1.81.41Z"/>
      <path d="m1305.88,446.7c-.78-12.28-1.56-24.56-2.34-36.84.52-.1,1.04-.21,1.55-.31,2.42,8.46,5.62,16.79,6.91,25.42.56,3.74-2.82,8.07-4.41,12.14-.57-.14-1.15-.27-1.72-.41Z"/>
      <path d="m1309.54,399.77c2.19,1.83,4.44,3.52,6.43,5.48.83.82,1.63,2.28,1.5,3.33-.75,6.38-1.78,12.72-2.8,19.68-4.84-6.99-7.79-23.88-5.13-28.5Z"/>
      <path d="m1308.42,373.88c-2.58-9.77,3.82-18.11,4.6-27.35.56-.04,1.12-.08,1.68-.12.96,6.85,2.69,13.71,2.51,20.53-.08,2.78-4.31,5.44-6.66,8.16-.71-.4-1.42-.81-2.13-1.21Z"/>
      <path d="m1318.05,374.72v24.77c-10.44-5.38-10.69-19.1,0-24.77Z"/>
      <path d="m1285.87,427.88c-.92-6.21-2.47-12.42-2.47-18.64,0-2.72,3.14-5.44,5.26-8.79,7.57,10.7-.94,18.6-1.02,27.28-.59.05-1.18.1-1.77.15Z"/>
      <path d="m1287.28,346.39c1.73,6.33,3.83,12.6,5.01,19.03.4,2.19-1.51,4.8-2.37,7.24-5.9-2.45-7.84-6.16-6.33-12,1.19-4.62,1.62-9.44,2.39-14.17l1.31-.09Z"/>
      <path d="m1282.64,374.71c7.42,5.23,7.54,18.94,0,25.2v-25.2Z"/>
      <path d="m139.14,349.73c8.59,0,17.05.17,25.49-.03,44.3-1.05,88.59-2.23,132.89-3.29,10.02-.24,7.44-1.45,11.55,7.33,4.02,8.57,7.78,17.26,11.99,26.64-8.16.65-15.68,1.35-23.23,1.82-44.92,2.8-89.87,3.85-134.84,1.28-1.85-.11-4.17-.7-5.36-1.94-8.17-8.5-14.21-18.41-18.47-29.4-.22-.56-.03-1.28-.03-2.41Z"/>
      <path d="m448.01,229.36c-4.46,15.29-17.91,19.31-28.96,9.56-12.71-11.21-12.52-35.52.45-46.52,1.84-1.56,4.12-2.61,6.61-3.54-5.41,6.17-8.8,13.15-9.67,21.17-.36,3.28-.52,6.7-.02,9.94,2.31,15.15,15.6,20.68,28.18,11.87.95-.66,1.87-1.36,3.41-2.48Z"/>
      <path d="m101.95,211.29c-5.91,8.87-9.04,17.95-7.46,28.26,2.08,13.53,12.27,17.5,23.08,9.2.47-.36.99-.67,2.15-.54-1.18,2.28-2.13,4.72-3.6,6.8-4.81,6.82-11.81,7.58-17.94,1.88-8-7.44-9.57-17.1-7.64-27.12,1-5.17,4-10.03,6.57-14.79.88-1.63,3.18-2.49,4.83-3.7Z"/>
    </g>
  </g>
</svg>