<?xml version="1.0" encoding="UTF-8"?>
<svg id="Layer_2" data-name="Layer 2" xmlns="http://www.w3.org/2000/svg" viewBox="0 0 5705.06 2617">
  <g id="Layer_1-2" data-name="Layer 1">
    <path d="m412.35,1236.21c-27.39,30.53-55.54,59.52-96.86,71.86-35.07,10.47-68.4,8.95-104.32-8.43,4.89-1.36,7.02-2.69,8.85-2.36,92.73,16.81,172.41-40.57,185.81-133.99,1.13-7.89,1.36-15.93,2.91-23.72,5.2-26.13,10.81-52.17,19.68-77.82,23.54,39.07,13.37,79.45,10.12,119.4-8.73,18.36-17.46,36.71-26.19,55.07Z"/>
    <path d="m250.37,1055.71c20.01.95,45.73,2.18,71.46,3.4,1.02-2.06,2.03-4.13,3.05-6.19-19.6-8.96-38.89-18.67-58.86-26.7-23.87-9.6-48.31-17.77-78.77-28.83,50.69-28.97,115.81-12.23,155.81,32.47,41.54,46.42,43.56,149.51,2.34,194.93-32.82,36.17-73.1,57.35-123.05,42.17-58.49-17.78-89.39-61.57-99.99-119.65-3.63-19.87-.58-40.97-.58-57.76,23.15-3.94,39.82-6.78,58.13-9.89-4.82,17.66-11.17,37.11-15.31,57.01-4.83,23.2-5.14,46.33,16.53,62.73,21.12,15.98,43.95,12.6,64.99,1.27,18.72-10.08,35.56-23.64,50-41.58-11.18,1.61-22.35,3.21-37.56,5.4,8.82-13.13,15.3-22.8,24.22-36.09-20.23-3.03-38.13-5.71-57.78-8.65,8.29-20.93,16.06-40.53,25.37-64.04Z"/>
    <path d="m232.68,1291.9c75.29-5.92,124.04-39.82,148.23-108.97,23.65-67.62,2.7-147.7-49.96-190.98-49.06-40.32-101.13-39.78-167.91,1.75,24-38.05,83.33-53.9,133.56-35.66,61.22,22.22,101.65,85.85,102.54,161.38.86,73.12-37.78,140.84-96.48,162.05-21.74,7.86-46.56,7.21-69.98,10.43Z"/>
    <path d="m222.86,1063.3q-22.25,57.87-3.58,111.15c-40.06-19.43-40.06-77.24,3.58-111.15Z"/>
    <path d="m264.39,938.92c-28.36,6.05-56.01,11.94-83.43,17.79,30.46-26.62,56.38-32,83.43-17.79Z"/>
    <path d="m255.67,1472.71c15.06-15.41,33.09-12.77,45.14-.87,7.6,7.51,10.61,25.59,7.52,36.63-4.8,17.09-18.07,29.75-42.75,26.05,9.79-14.55,18.03-26.8,26.27-39.05-11.82-7.44-23.65-14.89-36.17-22.77Z"/>
    <path d="m5632.41,1531.19c0-4.72-.47-9.67.07-14.51,5.86-52.62,12.88-105.15,17.17-157.89,1.1-13.58-3.36-38.19-10.17-40.07-38-10.53-29.29-42.38-36.77-67.42-8.15-27.27-12.41-59.35-29.8-79.43-34.81-40.21-72.26-83.22-117.91-107.89-88.99-48.1-139.06-120.89-175.53-211.1-22.57-55.84-54.35-108.55-86.69-159.69-40.65-64.29-101.01-85.25-176.25-71.28-46.84,8.7-94.14,12.61-142.5-.7-20.6-5.67-46.2,3.69-68.77,9.28-21.27,5.27-42.13,22.17-62.15,20.62-57.47-4.43-114.34-16.2-171.61-23.9-33.26-4.47-66.82-9.16-100.26-9.32-54.76-.25-109.54,3.52-164.32,4.57-9.55.18-19.2-4.67-34-8.56,9.41-8.29,13.33-12.42,17.88-15.65,41.94-29.8,56.8-62.91,46.55-104.23-10.79-43.47-42.56-69.91-93.46-74.14-17.19-1.43-21.57-8.12-22.7-23.64-4.75-64.77-12.57-129.39-15.02-194.23-1.22-32.3-9.37-49.87-44.19-50.81-14.01-.38-27.84-7.35-41.39-11.22,7.98-38.1,4.63-43.35-29.81-48.86-15.76-2.52-31.71-4.4-47.65-5.15-315.45-14.76-630.9-29.29-946.35-43.97-11.54-.54-23.03-2.04-33.87-3.04-3.73-39.33-15.82-46.7-48.51-31.81-8.96,4.08-16.44,11.37-25.33,15.7-14.75,7.18-29.64,17.19-45.25,18.9-56.59,6.18-113.5,9.32-170.29,13.76-151.4,11.85-302.86,23-454.16,36.05-60.21,5.2-110.97,28.39-144.37,83.64-28.9,47.82-61.16,93.7-93.53,139.31-27.71,39.04-57.16,76.88-86.85,114.45-15.77,19.95-37.18,26.22-63.34,27.01-90.79,2.75-181.86,4.75-272.15,13.77-126.36,12.62-246.86,47.6-357.46,112.52-61.96,36.37-107.27,85.67-127.31,156.14-4.63,16.29-11.64,31.9-17.22,47.93-17.62,50.65-17.54,50.25-71.66,48.47-182.74-6.01-365.47-13.52-548.26-16.75-98.26-1.74-195.72,10.7-288.15,47.32-183.52,72.71-239.56,258.05-124.25,418.06,21.39,29.69,29.7,59.3,32.79,93.16,3.35,36.81,7.23,73.57,10.76,110.36,4.92,51.32,9.73,102.65,14.69,155.08-12.66,1.46-21.46,2.18-30.16,3.53-113.99,17.7-174.26,107.61-145.98,216.09,11.24,43.13,34.99,69.26,81.18,75.69,121.64,16.93,242.85,37.05,364.64,52.72,30.78,3.96,42.24,15.34,47.43,44.69,23.64,133.83,98.84,228.72,221.93,285.92,6.05,2.81,11.84,6.2,24.94,13.12-243.92,25.38-480.07,49.95-717.34,74.64-.94,2.11-1.47,4.31-1.74,6.54,1.68,7.95,5.01,15.61,10.53,20.94,9.06,3.38,18.79,5.36,29.17,6.58,47.61,5.61,95.1,13.01,142.87,16.25,326.01,22.16,652.01,44.44,978.13,64.76,487.7,30.4,975.4,60.74,1463.28,88.03,220.81,12.35,440.81,4.72,660.1-33.13,526.7-90.91,1051.84-189.53,1573.24-307.07,150.85-34.01,299.54-77.61,449.18-116.99,54.16-14.25,88.32-50.64,103.93-102.61,15.18-50.54,26.33-102.33,38.29-153.8,4.09-17.58,5.28-35.82,7.8-53.76,2.85-.13,5.71-.25,8.56-.38,3.57,15.06,7.14,30.11,12.58,53.09,24.74-19.42,46.7-34.21,65.73-52.12,40.11-37.74,51.34-88.57,57.8-142.07,27.48,4.64,49.29-.18,57.76-29.29-5.66,3.73-11.31,7.46-21.36,14.08-1.82-17.27-3.27-31.09-5.28-50.16,14.65,9.08,36.4-3.24,32.89,23.77,28.91-65.25,3.85-119.82-60.74-129.93Zm-41.29,21.69c-117.9,5.29-235.81,10.58-359.7,16.13,123-24.64,240.9-30.12,359.7-16.13Zm-208.68-514.26c30.4,17.33,57.38,40.64,85.93,61.2-1.75,2.65-3.5,5.29-5.25,7.94-11.61-6.57-23.02-13.52-34.85-19.66-65.06-33.78-126.71-21.93-158.29,43.38-38.88,80.4-67.06,166.11-96.94,250.56-3.33,9.4,9.38,33,19.76,37.12,29.13,11.57,60.94,16.39,91.7,23.87,14.01,3.41,28.03,6.79,42.05,10.18-1.12,4.88-2.25,9.77-3.38,14.65-48.44-4.27-97.1-6.99-145.17-13.89-12.27-1.76-29.61-14.88-32.66-26.05-12.4-45.36-44.28-55.11-84.58-54.42-4.82.08-9.66-1.14-15.84-1.93,0-7.65-1.7-14.82.26-20.8,25.13-76.73,45.39-155.65,77.54-229.36,52.06-119.36,146.45-147.35,259.71-82.78Zm-1858.15,117.03c423.53-30.29,830.74,51.8,1230.75,178.21-406.98-85.18-810.83-186.42-1230.75-178.21Zm790.1,115.3v354.65c-2.34.02-4.67.04-7.01.05v-354.66c2.34-.01,4.67-.03,7.01-.04Zm71.17-87.94c-237.55-69.99-471.03-156.97-717.63-191.92-1.9,4.85-3.8,9.69-5.69,14.54,14.54,7.21,28.41,16.64,43.74,21.23,63.14,18.9,126.81,36.02,190.08,54.48,20.6,6.01,40.6,14.12,60.87,21.27-.47,2.68-.93,5.35-1.4,8.03-11.82-.95-23.81-.94-35.43-2.98-108.17-19.02-215.64-43.85-324.54-56.52-219.63-25.57-429.41,18.71-631.45,104.65-7.35,3.12-14.59,6.51-21.97,9.54-1.71.7-3.81.44-8.41.88-9.65-27.34-18.87-55.55-29.5-83.21-46.17-120.12-118.3-171.16-246.36-169.87-148.88,1.5-291.72,31.56-424.78,100.58-97.87,50.77-175.62,121.12-216.2,226.95-3.45,9.01-12.2,15.98-18.48,23.9-3.08-2.18-6.15-4.35-9.23-6.53,3.21-10.16,5.9-20.52,9.72-30.45,55.29-143.68,161.93-231.9,304.77-280.03,117.72-39.66,239.55-52.91,363.15-53.27,35.6-.1,71.2-.02,106.8-.02.33-3.65.65-7.31.98-10.96-6.61-2.13-13.13-5.81-19.83-6.16-230.87-12.03-461.51-17.46-689.59,30.96-25.22,5.35-50.02,14.35-73.79,24.52-51.63,22.07-65.86,40.18-79.6,98.79-26.59-16.13-53.47-29.07-76.33-47.1-34.17-26.94-34.99-61.01,1.55-83.85,36.69-22.94,77.38-45.42,119.1-53.19,91.99-17.12,185.55-33.05,278.79-35.05,481.78-10.38,960.87,18,1433.94,116.76,228.36,47.67,449.34,121.21,669.4,196.83,202.06,69.44,402.32,144.16,602.8,218.09,40.1,14.79,78.19,35.49,116.08,55.57,13.87,7.35,24.49,20.82,36.59,31.5-2.79,4.48-5.58,8.96-8.37,13.44-222.49-116.82-460.66-190.94-699.75-261.38Zm-1946.75,548.83c-22.06,4.49-44.12,8.98-69.17,14.08-2.69-33.13-3.91-58.9-7-84.44-15.98-131.78-89.57-217-216.34-250.14-82.74-21.63-167.97-36.8-253.05-45.76-222.42-23.45-445.36-41.9-644.91-60.21,139.27,5.88,302.16,12.75,465.05,19.62.2-1.53.39-3.06.59-4.59-96.79-10.57-193.59-21.14-290.38-31.71.28-3.54.57-7.07.85-10.61,103.9,3.78,207.8,7.56,311.69,11.34-139.52-14.62-278.34-41.54-419.19-30.95-.56,3.7-1.12,7.39-1.68,11.09,16.15,4.5,32.3,8.99,48.45,13.49-.03,2.87-.05,5.74-.08,8.61-27.56.74-55.32,3.93-82.66,1.83-155.79-11.98-310.65-12.92-466.18,10.54-80.29,12.11-143.5,49.42-203.1,97.91-17.53,14.26-29.05,35.91-39.6,58.21,50.99-79.3,130.12-105.27,213.35-123.84l4.53,9.2c-9.13,3.4-18.45,6.35-27.34,10.29-36.37,16.11-74.89,28.84-108.35,49.67-50.86,31.67-78.63,81.35-87.76,140.52-7,45.39-13.21,90.93-18.51,136.55-4.07,35.11-8.05,38.53-48.19,30.95,3.2-91.96,13.38-182.44,55.88-266.52,27.32-54.06,71.14-90.58,123.76-117.85,115.21-59.71,239.84-87.57,366.93-104.99,216.31-29.65,432.82-16.73,648.98,3.01,156.42,14.28,310.96,39.58,461.34,86.95,99.58,31.37,187.66,77.7,247.04,168.55,36.39,55.68,46.2,118.37,56.06,181.51,3.65,23.37,5.07,47.09,7.93,74.75-12.92-5.91-21.62-9.89-30.32-13.86.46,2.27.93,4.54,1.39,6.8Zm-186.98-204.87c-9.65,79.9-19.2,159.8-28.66,239.72-.93,7.85-1.13,15.79-1.8,25.51-48.04,5.12-48.97,5.19-52.47-37.41-5.68-69.2-1.72-137.84,23.22-203.33,7.99-20.99,22-39.92,34.93-58.64,3.73-5.4,13.29-6.76,20.18-9.98,2.8,7.85,6.98,15.54,7.98,23.62.82,6.59-2.55,13.6-3.38,20.51Zm-124.32,259.7c-48.93,3.43-49.4,3.48-53.58-40.07-6.74-70.37-2.53-139.98,22.51-206.61,7.9-21.02,21.98-39.97,34.92-58.7,3.7-5.36,13.33-6.63,20.24-9.78,2.88,7.88,6.87,15.56,8.24,23.69.93,5.53-1.23,11.87-3,17.53-24.77,79.23-27.22,161.13-29.3,243.07-.25,9.81-.03,19.62-.03,30.86Zm-63-295.87c-26.08,91.11-28.92,184.66-29.61,278.46-.03,3.88-.9,7.75-1.62,13.59-47.12,3.98-49.16,3.08-51.94-38.82-4.63-69.86-4.7-139.78,16.85-207.29,8.07-25.28,20.79-49.44,34.22-72.45,4.99-8.55,18.1-12.35,27.5-18.32,2.2,10.01,4.92,19.95,6.38,30.07.68,4.75-.44,10.03-1.8,14.76Zm-101.2-8.11c-9.52,88.97-18.91,177.96-28.22,266.96-1.01,9.65-1.28,19.38-2.01,30.79-46.65,1.41-47.15,1.46-50.91-40.14-7.51-83.24-3.78-165.61,26.09-244.66,7.61-20.13,20.74-38.35,32.75-56.52,3.13-4.74,14.69-9.86,16.91-8.06,5.18,4.21,9.43,12.41,9.7,19.16.42,10.75-3.13,21.59-4.3,32.47Zm-158.79,29.15c7.95-21.35,15.95-43.14,27.71-62.43,6.92-11.36,21.21-18.23,32.19-27.12,2.18,13.71,7.75,27.9,5.92,41.05-6.84,49.21-18.35,97.83-23.8,147.15-4.8,43.43-3.81,87.5-5.43,131.29-.36,9.64-.95,19.27-1.41,28.38-47.39,4.28-47.97,4.35-53.3-38.23-2.83-22.66-3.6-45.61-4.72-68.45-1.71-34.69,8.01-64.9,40.94-88.48-38.25-14.35-26.89-39.55-18.1-63.16Zm-33.74-69.41c-4.72,35.53-11.01,70.88-18.06,106.04-.95,4.74-8.78,9.71-14.42,11.59-14.05,4.67-28.67,7.62-48.23,12.56,5.73-53.47,19.06-100.69,50.35-141.36,4.7-6.11,14.32-8.43,21.67-12.51,3.1,7.92,9.68,16.31,8.7,23.69Zm-237.12,188.89c32.87,2.57,65.85,4.16,98.61,7.68,7.12.77,17.56,6.77,19.16,12.44,1.56,5.49-6.53,13.53-9.93,20.66-3.49,7.32-8.81,14.77-9.19,22.38-1.2,23.59-.44,47.28-.44,70.2-50.71,5.79-51.19,5.42-54.61-37.83-1.41-17.75-2.81-35.5-4.34-54.86h-41.4v87.77c-48.11,7.17-51.04,5.03-54.37-36.85-1.33-16.71-2.22-33.45-3.42-51.9h-43.21v82.1c-46.08,11.15-51.83,7.17-55.07-35.41-1.13-14.84-1.73-29.72-2.71-47h-44.81v80.65h-49.57c-3-28.26-5.82-54.76-9.06-85.32-54.61,10.55-17.03,57.65-37.72,81.6h-35.83c-21.43-17.33,5.23-55.39-35.35-61.04-1.09,19.62-2.08,37.34-3.04,54.67-44.53,11.25-49.7,7.6-52.69-35.79-1.24-17.99-2.64-35.97-3.97-53.95-4.24-.04-8.49-.07-12.73-.11-1.48,29.33-2.97,58.67-4.42,87.4-46.79,7.45-48.76,5.95-52.02-36.53-1.21-15.76-2.66-31.5-4-47.25-3-.19-6.01-.39-9.01-.58-1.21,27.18-2.42,54.36-3.61,80.98-44.18,9.22-47.22,7.1-51.88-35.03-.66-5.96,0-12.27-1.75-17.85-3.37-10.7-8.03-20.99-12.16-31.45-3.43,11.24-8.6,22.28-9.86,33.75-1.71,15.57-.43,31.47-.43,46.5-47.33,9.04-49.4,7.69-53.89-34.41-1.55-14.55-2.35-29.18-10.46-44.12-1.42,25.64-2.83,51.28-4.22,76.46-44.21,8.86-48.74,5.78-52.14-34.91-.92-10.95.46-22.39-2.3-32.78-1.87-7.04-9.12-12.64-15.87-21.33v84.97c-42.54,10.62-46.55,7.82-49.94-35.89-.69-8.94-1.68-17.88-3.24-26.7-.42-2.4-3.4-4.34-10.24-12.5v96.41c299.77,11.1,602.44,22.31,905.81,33.54-9.69,44.63-31.88,66.17-76.44,59.19,5.51,1.69,11.02,3.37,24.6,7.53-31.25,4.17-52.56,8.47-69.85-14.87-3.22-4.35-26.41-2.16-30.19,3.64-12.71,19.55-20.82,42.09-32.53,67.48-211.76-9.6-427.18-14.74-642.22-27.48-.03-4.44-.07-8.87-.1-13.31,8.89-.47,17.81-1.6,26.68-1.32,191.79,5.99,383.59,11.69,575.34,18.79,26.05.96,44.95-.93,49.29-31.5,1.19-8.4,7.01-16.14,12.08-27.16-8.23-1.14-14.52-2.59-20.85-2.8-198.77-6.5-397.6-11.78-596.29-20.21-38.85-1.65-54.82,19.16-70.53,55.15-10.5-21.8-17.71-36.75-28.51-59.18-3.68,22.87-5.54,37.33-8.44,51.58-3.23,15.87-14.55,21.43-25.47,10.1-10.77-11.18-22.97-27.49-22.33-40.97.47-9.84,20.29-26.06,32.28-26.82,58.69-3.71,117.72-5.67,176.49-3.73,221.74,7.3,443.42,16.42,665.13,24.55,11.28.41,22.67-2.11,34.04-8.75-10.49-1.08-20.96-2.74-31.48-3.14-282.59-10.9-565.19-21.55-847.76-32.98-10.21-.41-19.77-9.52-30.23-12.41-20.82-5.76-42.06-10.02-64.46-15.21-.7,3.1-1.11-2.3,1.11-3.8,33.44-22.52,25.48-49.09,15.1-81.8-6.28-19.78,4.7-45.47,9.51-68.17,3.22-15.22,6.88-31.28,14.76-44.29,5.71-9.44,18.65-14.51,29.1-22.05,6.48,17.72,11.28,30.86,18.23,49.89-9.68,31.38-2.93,40.85,38.01,41.38,41.97.54,84-.86,125.92.78,96.19,3.78,192.33,8.96,288.5,13.4,11.8.55,23.65.07,38.3.07-3.43-16.43-16.66-37.76,20.45-31.58-20.89-20.89-41.31-31.58-62.96-21.15-18.44,8.88-32.92,25.99-52.65,36.58,2.91-5.33,5.83-10.67,10.32-18.89-9.77,2.38-17.49,4.26-24.72,6.02-2.11-2.59-4.38-4.09-4.34-5.5,2.1-62.49,11.54-123.57,42.31-178.94,7.48-13.46,22.41-22.79,33.91-34.02,2.25,15.63,8.01,31.72,6.04,46.8-4.63,35.58-13.12,70.65-19.61,106.01-1.4,7.64-.94,15.61-1.34,23.43,2.63,1.5,5.26,2.99,7.89,4.49,5.39-8.44,12.6-16.24,15.86-25.44,14.6-41.2,26.87-83.26,42.82-123.9,3.83-9.74,18.55-15.21,28.26-22.65,2.59,11.67,8.75,23.85,7.16,34.93-6.5,45.43-14.76,90.64-23.58,135.7-4.32,22.08,3.6,35.93,25.44,47.22,4.93-32.29,6.45-63.21,14.88-92.11,10.52-36.05,25.78-70.87,41.21-105.23,3.61-8.05,16.12-12.1,24.53-17.99,2.74,9.7,8.97,19.91,7.65,29.03-7.02,48.39-16.68,96.39-23.82,144.76-2.63,17.82-8.97,38.51,10.99,49.95,2.07.64,4.13,1.97,6.22,2.78.09,0,.18,0,.27.01,15.79-4.44,22.31-13.7,24.81-31.35,5.71-40.35,14.07-80.53,24.52-119.93,5-18.84,15.94-36.59,26.69-53.21,5.19-8.02,16.19-12.27,24.55-18.23,2.74,9.77,8.96,20.04,7.63,29.21-6.3,43.42-15.21,86.46-22.05,129.81-2.91,18.47-3.02,37.39-4.64,59.27,14.74.67,26.96,1.22,38.56,1.75,7.59-41.98,12.25-81.73,22.54-119.95,7.41-27.51,21.19-53.6,34.54-79.06,4.27-8.15,16.23-12.28,24.67-18.25,2.78,9.75,9.06,20.01,7.73,29.16-6.03,41.45-14.9,82.47-21.33,123.87-3.34,21.5-3.74,43.47-5.71,68.2,13.58,1.33,24.89,2.44,39.14,3.84,3.46-26.26,4.27-51.2,10.41-74.76,9.76-37.44,21.18-74.72,35.87-110.44,5.58-13.56,22.15-22.59,33.72-33.69,2.08,15.61,7.76,31.73,5.6,46.73-8.63,59.92-19.7,119.49-30.16,180.94-90.22-4.52-183.65-9.21-277.08-13.9-.12.03-.23.07-.35.11-2.29-.88-4.31-1.86-6.13-2.9-.71-.22-1.42-.36-2.13-.38-16.9-.3-33.81-.15-50.91,3.44,80.29,6.38,160.58,12.82,240.88,19.1Zm-74.61,293.67c-2.81,42.27-5.02,80.04-7.95,117.74-1.58,20.36-16.28,22.61-32.57,21.47-59.76-4.19-119.48-9.02-179.28-12.54-167.44-9.86-334.91-19.22-502.38-28.7q-55.99-3.17-61.27-56.9c-7.19-73.38-1.14-80.57,72.43-77.09,222.42,10.51,444.82,21.66,667.22,32.65,13.77.68,27.5,2.09,43.8,3.37Zm-838.32-225.8c.43-13.51.09-27.05.09-44.63,24.71,32.3,19.64,60.46-2.98,94.9,1.24-20.92,2.42-35.58,2.89-50.27Zm-13.97-4.61c-1.85,14.11.1,27.73-21.9,26.78-20.76-.9-21.12-12.49-20.86-27.69,1.09-65.05,6.02-129.57,31.5-190.36,7.26-17.31,19.28-32.61,29.12-48.84,4.02,1.79,8.04,3.57,12.05,5.36-.97,12.29-1.35,24.65-2.99,36.85-8.87,65.98-18.29,131.89-26.92,197.9Zm19.64-75.06c2.7-70.92,8.77-140.79,61.69-204.93,21.07,87.25-45.74,138.15-61.69,204.93Zm421.25-209.29c-9.98,60.77-21.03,121.37-32.22,184.87h-48.83c-16.36-68.24,30-202.78,79.4-219.38.71,12.35,3.41,23.79,1.65,34.5Zm39.61-27.26c4.41-6.31,14.12-8.92,21.37-13.25,2.92,7.84,8.48,15.79,8.19,23.51-.6,15.85-4.2,31.6-6.79,47.36-8.55,51.97-17.19,103.92-26.03,157.27h-52.92c2.76-77.51,11.46-150.8,56.17-214.89Zm-116.14,29.38c-4.62,28.47-11.86,56.5-16.69,84.94-5.33,31.31-9.07,62.88-13.95,97.54h-55.52c3.81-70.62,13.47-137.33,57.35-194.16,4.37-5.65,14.73-6.68,22.31-9.85,2.34,7.21,7.59,14.88,6.51,21.54Zm-67.94,3.5c-7.84,55.14-17.05,110.09-26.92,164.9-.99,5.5-8.99,12.93-14.6,13.78-13.38,2.03-27.28.65-43.95.65,4.3-71.22,13.35-136.53,54.35-192.8,5.16-7.08,15.47-10.39,23.39-15.45,2.76,9.66,9.01,19.82,7.72,28.91Zm-94.82,162.49c-4.22,23.07-24.23,19.68-38.33,14.95-19.55-6.56-30.21-26.37-18.34-42.85,12.25-17.02,8.44-33.83,12.91-50.08,8.78-31.91,26.35-61.58,42.12-91.21,3.09-5.81,14.48-7.21,22.04-10.64,3.16,7.71,6.33,15.43,6.85,16.71-9.78,59.17-17.76,111.29-27.24,163.13Zm-45.09-153.1c-2.92,21.52-7.57,42.86-12.79,63.96-1.1,4.46-6.85,9.9-11.4,10.99-14.9,3.57-30.23,5.34-56.15,9.54,19.68-36.25,35.66-67.07,53.33-96.89,2.98-5.02,13.22-5.74,20.11-8.45,2.48,6.97,7.79,14.33,6.91,20.85Zm300.19-89.05c68.41-18.82,418.09-6.92,606.7,22.78-184.47-6.93-406.65-15.27-606.7-22.78Zm-305.3-421.19c-26.75,10.76-53.72,22.48-81.74,28.32-73.94,15.4-124.55,59.11-160.67,123.07-8.02,14.21-18,27.31-27.08,40.92-4.22-93.14-49.4-159.92-121.69-211.04,52.61-42.82,380.52-44.85,422.61-2.15-10.84,7.38-20.23,16.38-31.43,20.88Zm145.1,311.65c-19.68,5.12-39.88,8.77-58.92,15.65-51.4,18.58-104.82,33.74-152.88,58.94-102.09,53.54-166.72,137.19-181.19,257.82-47.57-154.74,197.49-364.19,392.99-332.4Zm502.28-326.97c47.77.59,69.79,27.94,64.49,84.3,41.38-11.94,52.1,13.5,61.2,46.53,13.28,48.2,48.24,73.32,97.64,80.44,45.43,6.55,90.68,14.57,135.82,22.94,44.75,8.29,82.19,27.5,108.41,67.66,10.79,16.52,30.11,27.47,44.49,43.79-309.13-55.72-618.52-72.58-938.18-26.1,51.24-48.34,91.68-95.07,162.01-99.86,34.94-2.38,70.23-14.1,103.18-27.11,35.34-13.95,56.27-42.25,62.28-81.81,2.09-13.77,13.64-26.1,20.87-39.09,2.9.28,5.81.55,8.71.83-2.68-46.45,22.71-73.1,69.08-72.53Zm221.21,37.58c54.12-95.79,66.79-211.06,133.47-300.9,4.86,2.62,9.72,5.24,14.58,7.86-72.4,86.58-66.89,210.65-148.05,293.04Zm835.82,673.86c-24.86-166.66-119.45-271.96-280.88-317.83-37.17-10.56-74.78-19.59-111.19-31.62,139.26,10.19,265.44,49.57,350.86,170.19,65.52,92.51,84.65,196.55,72.38,306.45-4.27.46-8.55.92-12.82,1.37-6.1-42.86-11.96-85.75-18.35-128.57Zm96.19-623.15c77.76-57.52,174.73-53.29,247.79,10.81,54.88,48.15,86.51,120.91,88.28,210.37-.7,81.91-28.98,159.23-101.9,215.35-68.94,53.07-157.86,53.94-228.85,4.05-140.49-98.75-143.39-338.46-5.33-440.58Zm197.99,668.62c23.46-34.7,27.72-71.13,5.82-115.7,32.53,37.44,28.24,85.12-5.82,115.7Zm-63.76-134.11c40.17-.77,72.71,32.11,73.43,74.2.7,41.63-30.92,76.47-70.49,77.66-39.26,1.18-74.95-32.95-75.85-72.54-.94-41.1,33.5-78.56,72.92-79.32Zm499.12,273.11c-78.1-14.81-155.79-32.6-234.42-43.6-78.9-11.04-158.75-15.32-238.02-23.39,162.8-16.2,321.39-2.19,472.45,66.99Zm491.11-967.02c18.19-9.29,39.28-15.96,59.57-17.55,89.82-7.06,176.94,9.46,262.63,35.01,5.67,1.69,12.73,3.54,15.92,7.76,6.63,8.78,15.49,19.46,14.92,28.85-.39,6.54-14.43,16.6-23.23,17.6-55.47,6.34-111.19,10.59-161.7,15.07-41.32-2.9-77.64-2.56-112.72-8.98-21.52-3.94-43.47-15.18-61.05-28.61-22.35-17.08-19.83-36.13,5.67-49.16Zm471.34-62.79c-13.94-1.82-29.14-12.92-38.49-24.12-5.85-7.01-4.51-23.18-.96-33.35,1.5-4.3,17.27-6.2,26.01-5.04,211.89,28.22,423.71,56.96,635.51,85.83,9.96,1.36,19.64,4.75,29.44,7.19-.52,2.94-1.05,5.88-1.57,8.82-50.08-5.02-100.16-10.07-150.25-15.04-30.82-3.06-61.73-9.02-92.44-8.1-26.85.8-53.4,9.74-80.2,14.39-11.67,2.02-23.85,4.32-35.43,3.08-97.29-10.48-194.6-20.98-291.62-33.64Zm685.73,113.12c32.86-7.68,67.23-9.54,101.11-11.26,3.8-.19,8.4,15.59,12.63,23.96-9.12,1.46-18.27,4.18-27.37,4.04-10.7-.15-22.44-6.32-31.78-3.48-12.87,3.92-21.86,19.45-39.2,6.11-2.88-2.21-19.09,12.91-31.62,21.78-12.24-22.46,2.83-38.04,16.22-41.16Zm58.84-240.77c22.95,3.98,45.51,12.77,68.45,13.58,35.73,1.26,71.66-3.98,107.45-3.35,15.84.28,34.22,4.43,46.8,13.37,29.95,21.28,57.87,45.67,84.99,70.56,7.98,7.33,10.57,20.53,16.87,33.62-10,.67-13.37,1.97-15.56.88-78.79-38.98-163.39-30.48-246.63-28.34-38.66.99-64.44-8.25-78.41-47.07-6.76-18.79-22.01-34.53-38.31-58.99,21.45,2.18,38.08,2.92,54.36,5.74Zm-309.87,4.12c77.45,25.16,156.44,26.23,238.98,2.32-9.9,29.6-32.2,37.65-53.82,39.19-85.69,6.12-171.06,8.62-253.11-26.62-22.03-9.46-48.27-10.62-72.8-12.35-28.59-2.01-57.42-.47-86.15-.47-.1-2.77-.19-5.53-.29-8.3,75.8-3.16,151.43-18.39,227.19,6.22Zm-207.37,19.63c251.38,40.99,502.65,82.67,753.92,124.37,23.73,3.94,48.74,6.49,71.33,34.58-18.18-1.87-28.49-2.62-38.71-4.03-344.4-47.37-688.81-94.6-1033.15-142.4-60.56-8.41-62.96-6.91-49.38,50.02,1.82,7.61,3.2,15.32,5.42,26.08-6.81-1.81-11.24-2.99-15.67-4.17,41.23,86.88,54.07,178.83,49.25,274.26-19.49-119.13-15.25-246.48-121.63-333.89,2.1-2.45,4.2-4.9,6.31-7.36,19.67,15.92,39.35,31.83,59.02,47.75-11.29-19.98-23.91-39.36-33.4-60.16-6.03-13.21-7.4-28.55-10.87-42.93,15.53-3.39,31.73-11.49,46.5-9.42,103.86,14.55,207.54,30.43,311.05,47.31Zm-105.87-25.69c-13.96-1.85-28.04-3.22-41.94-5.65-44.17-7.72-88.35-15.41-132.37-23.94-30.35-5.88-43.63-19.5-49.41-42.61,27.72,11.34,58.09,27.2,90.38,36.03,34.06,9.31,69.96,11.92,107.94,17.9,1.99-27.94-43.85-44.17-10.03-72.13,11.92,30.41,23.03,58.78,35.42,90.39Zm62.15-106.84c-19.36,22.45-32.98,38.25-50.13,58.15-10.56-21.79-18.34-37.86-28.17-58.15h78.3Zm-117.63-70.02c9.96,6.88,19.92,13.75,31.2,21.53,3.1-6.76,6.63-14.45,10.49-22.89,13.73,1.72,27.69,3.47,45.74,5.73-3.95,14.08-7.48,26.68-11.64,41.51,8.58,1.69,17.97,3.54,27.36,5.4.09,3.11.19,6.22.28,9.33-19.64.84-39.41,3.46-58.9,2.07-24.46-1.73-36.61,9.81-44.22,31.08-3.56,9.94-10.19,26.51-15.42,26.51-10.9,0-21.79-9.04-30.31-13.21,15.39-13.55,27.01-23.79,42.64-37.56-20.38-4.78-33.7-7.9-47.02-11.02.16-2.8.32-5.6.48-8.41,19.04-2,38.09-4.01,59.04-6.21-5.12-13.33-9.9-25.79-14.69-38.26,1.65-1.87,3.3-3.74,4.96-5.61Zm-51.84-230.01c2.37-6.86,11.18-11.49,16.99-17.16,3.51,7.37,9.51,14.53,10.14,22.14,4.76,57.58,8.66,115.24,12.23,172.91.39,6.33-.84,15.57-4.98,18.89-21.89,17.58-37.55,38.02-40.97,66.92-.42,3.53-8.49,8.56-13.18,8.75-22.45.92-44.96.41-72.55.41,32.19-95.66,61.79-184.42,92.31-272.86Zm-1210.25-147.06c21.44-.59,31.65-7.83,36.09-29.66,6.38-31.4,25.09-41.15,58.17-30.32-9.89,10.29-20.89,17.67-25.84,27.95-5.86,12.15-6.49,26.81-9.39,40.38,12.16-2.07,24.42-3.72,36.46-6.35,10.29-2.24,20.47-8.53,30.46-8.05,212.57,10.24,425.25,19.06,637.58,33.05,82.4,5.43,164.51,20.25,245.82,35.69,60.18,11.43,79.95,38.91,69.09,98.18-14.91,81.35-36.48,161.49-55.99,241.96-3.01,12.4-10.03,23.89-15.62,35.6-19.48,40.81-48.94,62.94-97.15,58.44-135.25-12.63-270.68-23.24-405.99-35.22-63.69-5.64-127.26-12.71-190.91-18.83-7.1-.68-14.4.62-21.81,7.13,148.78,15.61,297.55,31.23,446.33,46.84-.3,3.53-.59,7.06-.89,10.59-32.79-2.07-65.58-4.14-98.37-6.22-.07.74-.15,1.48-.22,2.22,122.51,16.55,245.08,32.67,367.49,49.98,26.11,3.69,30.57-14.04,35.4-30.98,29.04-101.8,57.63-203.72,85.85-305.75,13.29-48.04,25.41-96.39,38.31-145.56,25.97.67,30.34,10.99,23.2,34-27.8,89.67-53.96,179.84-80.68,269.84-14.22,47.9-12.76,49.76,38.72,51.99,18.74.81,37.47,1.96,56.21,2.95,0,4.38,0,8.75,0,13.13-36.92,2.08-73.84,4.15-114.1,6.42-11.85,31.53-25.9,64.44-36.42,98.45-7.37,23.81-20.23,30.87-44.11,28.06-123.02-14.45-246.08-28.68-369.29-41.45-99.35-10.3-198.97-17.99-298.37-27.8-21.35-2.11-42.29-8.37-63.02-17.05,66.57-15.88,133.09-.92,199.73-5.3-62.06-6.48-124.14-12.71-186.16-19.49-107.25-11.73-214.52-23.31-321.64-36.15-20.03-2.4-39.39-10.42-59.05-15.85.16-3.95.33-7.89.49-11.84,11.42-1.59,23.02-5.36,34.25-4.46,213.11,17.23,426.13,35.51,639.27,52.46,98.6,7.84,197.35,14.12,296.12,19.55,57.5,3.16,94.28-22.16,107.79-78.44,17.7-73.69,32.08-148.29,44.83-223.03,7.44-43.65-.36-58.26-43.94-66.96-94.82-18.93-190.21-38.37-286.31-46.86-171.11-15.12-342.88-22.91-514.46-32.15-30.26-1.63-61.11,3.51-91.32,7.98-7.75,1.15-16.84,10.25-20.74,18-59.6,118.68-118.12,237.91-178.05,356.42-5.03,9.95-17.8,16.88-28.46,22.3-1.92.97-14.96-11.86-15.84-19.17-.91-7.49,6.65-16.1,10.76-24.09,54.37-105.72,108.85-211.38,163.1-317.16,6.14-11.96,11.04-24.56,16.51-36.86-1.67-.77-3.35-1.53-5.02-2.3-64.2,121.02-128.39,242.05-192.86,362.93-.72,1.35-5.25.68-14.9,1.63,59.57-122.28,117.31-240.82,176.55-362.41-7.88-1.21-12.36-2.77-16.69-2.44-161.3,12.23-322.59,24.63-483.89,37.02-1.99.15-3.96.54-5.95.72-201.31,18.3-311.22,140.1-365.6,326.93,214.9,6.53,431.37,1.15,646.76,18.74h-741.69c3.69-8,4.35-10.61,4.97-10.6,39.51.55,55.87-26.46,71.11-57.03,20.04-40.21,43.31-78.82,63.46-118.98,46.3-92.33,121.25-144.52,220.92-167.7,124.32-28.91,250.61-38.87,377.32-46.15,73.82-4.24,147.75-6.85,221.67-8.88Zm93.6,104.31c13.23-23.39,32.22-38.82,62.12-39.94,253.04-9.44,505.27-5.79,754.38,46.51,26.92,5.65,53.2,16.97,78.03,29.2,23.56,11.6,34.98,32.53,27.57,59.9-18.22,67.24-35.57,134.75-55.61,201.45-11.05,36.77-37.3,53.14-77.62,50.57-181.35-11.54-362.88-20.29-544.17-32.64-122.48-8.35-244.68-21.01-366.99-31.84-7.83-.69-15.59-2.26-27-3.97,2.32-9.26,2.6-15.48,5.3-20.36,47.74-86.44,95.38-172.93,143.99-258.88Zm-135.16,198.47c38.03-72.73,76.07-145.46,114.1-218.19,2.97,1.56,5.95,3.12,8.92,4.69-38.54,72.8-77.08,145.6-115.62,218.4-2.47-1.63-4.94-3.27-7.4-4.9Zm-129.94,60.1c-7.85,16.28-17.48,23.81-36.53,23.57-206.64-2.56-413.29-4.31-619.94-6.35-2.93-.03-5.84-1-10.8-1.9,29.78-142.4,156.08-261.13,311.56-289.28,160.51-29.06,322.94-38.47,485.94-38.45,4.9,0,9.81,1.02,18.3,1.96-3.47,9.38-5.76,17.64-9.45,25.21-46.32,95.09-93.11,189.95-139.08,285.22Zm-708.71-96.37c36.29-52.45,70.83-106.11,105.88-159.41,27.34-41.59,64.15-67.02,114.89-71.24,34.49-2.87,68.83-7.56,103.23-11.44.42,2.89.83,5.78,1.25,8.67-25.01,3.73-49.9,8.76-75.04,10.93-60.11,5.19-104.63,34.07-137.41,84.09-49.72,75.87-101.42,150.47-150.38,226.83-20.08,31.32-46.03,43.68-82.91,38.57,63.67-20.56,87.08-78.7,120.49-127Zm134.64,283.95c285.76,2.22,571.52,9.23,857.17,17.88,276.68,8.38,553.22,21.17,829.82,32.07,34.87,1.37,68.32,7.85,98.54,25.19-.15,3.35-.3,6.7-.45,10.05-25.94,1.63-51.93,5.19-77.81,4.56-103.9-2.53-207.74-7.75-311.65-9.45-386.68-6.34-773.38-14.68-1160.08-15.35-100.89-.17-201.99,23.56-302.68,38.4-102.2,15.07-203.13,15.61-302.33-17.03-14.48-4.76-28.19-11.87-42.26-17.89-.48-5.29-.96-10.57-1.44-15.86,29.17-10.46,57.71-27.35,87.61-30.23,108.28-10.44,217.07-23.18,325.57-22.33Zm-970.76,20.41c43.57-47.47,97.03-79.6,156.7-101.95,157.07-58.85,321.1-79.45,487.32-87.61,5.81-.29,11.67.72,18.57,7.64-9.56,1.41-19.11,2.94-28.7,4.21-71.23,9.4-142.67,17.49-213.67,28.43-90.6,13.96-146.48,71.86-172.67,155.06-19.66,62.45-27.87,128.51-41.15,192.96-1.55,7.51-2.98,15.05-5.56,28.1-37.43-52.55,25.4-264.49,100.06-348.2-82.44,19.6-158.3,44.43-228.76,86.01-75.13,44.34-103.24,120.58-137.4,193.68,6.21-59.64,24.25-113.64,65.26-158.32Zm-8.14,67.61c7.68-17.25,21.5-31.77,38.55-43.71-65.65,90.68-60.52,214.18-135.26,299.58-2.8-1.26-5.61-2.53-8.41-3.79,0-2.79-.88-5.96.13-8.32,34.72-81.37,69.02-162.93,104.99-243.75Zm-908.38,131.88c31.92-7.66,64.53-17.44,96.88-17.53,183.73-.54,367.47.74,551.18,3.31,40.7.57,81.37,8.24,121.87,13.94,13.2,1.86,25.82,7.83,38.7,11.92-.54,2.25-1.08,4.49-1.61,6.74-24.03-3.42-47.96-8.06-72.11-10.08-212.31-17.76-424.77-28.47-637.58-8.58-19.8,1.85-39.71,5.26-58.88,10.47-17.95,4.87-34.99,13.08-54.21,20.51-12.3-18.36,1.43-27.26,15.75-30.7Zm-237.44,266.3c-.14-90.95,52.38-171.51,128.97-197.83,97.89-33.64,205.83,33.39,226.55,146.02,6.71,36.46-2.95,75.94-5.13,114.04-8.73,18.36-17.46,36.71-26.19,55.07-25.32,67.96-121.02,106.32-197.33,79.11-74.97-26.74-126.75-106.89-126.88-196.4Zm258.05,380.03c.39,35.12-29.18,66.01-63.67,66.49-33.32.47-64.36-31.55-64.16-66.18.19-33.56,29.14-63.44,62.44-64.45,34.72-1.05,64.99,28.64,65.39,64.14Zm247.28,325.32c-12.02-2.46-23.95-5.53-36.07-7.27-54.31-7.81-109.01-13.47-162.85-23.71-20.64-3.93-40.47-16.26-58.63-27.93-17.31-11.13-25.15-29.11-15.71-49.62,7.94-17.25-1.37-25.04-14.89-29.02-70.16-20.69-140.96-23.67-207.01,10.47-22.92,11.85-40.91,37.39-55.38,60.33-15.35,24.34-14.69,51.71,15.08,77.17-33.78-1.13-30.39,16.36-22.58,33.19,14.36,30.94,43.08,44.54,73.78,50.99,51.73,10.87,103.92,20.18,156.32,27.1,86.98,11.48,174.29,20.55,261.46,30.63.53-3.56,1.06-7.11,1.59-10.67-119.6-17.16-239.2-34.32-358.79-51.49.24-2.6.47-5.2.71-7.8,100.52,6.43,201.04,12.85,301.56,19.28.12-1.08.24-2.17.37-3.25-131.66-17.79-263.32-35.58-394.99-53.37.38-2.92.76-5.84,1.14-8.76,171.7,14.38,343.41,28.76,519.9,43.55-1.72,33.53-3.36,65.62-5.1,99.7-106.08-15.1-208.69-29.33-311.17-44.42-67.13-9.88-133.99-21.65-201.15-31.3-34.66-4.98-52.94-25.59-60.99-57.34-25.21-99.45,15.53-223.98,170.53-217.37,54.8,2.34,109.5,8.88,164.01,15.47,45.78,5.54,50.38,15.87,31.1,58.46-1.14,2.52-1.16,5.56-2.2,10.92,75.25,5.17,149.48,10.27,227.24,15.62-3.75,43.94-7.35,86.02-11.45,134.06-146.31-13.81-290.69-27.43-435.07-41.05.05-1.76.09-3.52.14-5.27,24.65,0,49.3-.16,73.95.03,99.91.76,199.82,2.12,299.74,2.01,18.67-.02,37.33-5.76,56-8.86-.19-3.49-.38-6.99-.57-10.48Zm25.86,285.55c-9.8-22.35-17.74-48.24-16.74-72.12,3.11-74.18,10.9-148.16,16.88-222.22,2.65-.08,5.31-.16,7.96-.24,2.93,45.75,5.86,91.5,9.03,141.1,10.41-4.77,17.67-8.1,25.72-11.79,1.25,2.42,3.49,4.82,3.64,7.33,2.17,37.82,4.92,75.64,5.83,113.5,1.36,56.17,36.55,67.17,83.41,62.86,7.7-.71,15.35-1.91,28.86-3.63-45.69,50.7-140.65,39.79-164.59-14.8Zm396.96,60.78c64,4.35,128,8.7,200.06,13.6-61.18,35.81-149.46,29.92-200.06-13.6Zm803,204.07c-.58,1.92-1.16,3.84-1.74,5.76-208.69-14.09-417.38-28.19-626.07-42.28,53.95-32.88,91.98-77.92,125.7-127.97,4.78-7.1,20.72-10.32,31.04-9.51,134.47,10.63,268.89,21.85,403.22,34.06,32.47,2.95,63.56,8.6,84.19-26.37,3.28-5.55,15.62-8.23,23.71-8.11,204.86,3.03,409.71,6.59,614.56,10.17,3.65.06,7.28,1.4,11.07,7.24-307.98,32.63-615.95,65.27-923.93,97.9-.26,1.8-.51,3.6-.77,5.4,86.34,17.9,172.69,35.79,259.03,53.69Zm86.2-198.43c223.1-3.9,446.2-7.81,669.3-11.71.38,2.99.77,5.97,1.15,8.96-223.2,28.87-446.83,16-670.45,2.76Zm1352.02-106.83c-5.63,9.53-24.57,15.45-37.52,15.77-140.88,3.4-281.79,6.78-422.7,7.39-335.79,1.45-671.58,1.42-1007.37,1.92-43.32.07-54.69,18.9-32.62,57.07,10.67,18.45,24.37,35.15,40.09,57.46-52.31,9.69-96.79,1.98-140.99-8.7-3.96-.96-8.91-6.57-9.67-10.7-6.44-35.19-32.05-32.64-59-33.6-222.65-7.95-445.3-16.23-667.86-26.2-54.77-2.45-109.3-11.06-163.84-17.63-49.13-5.92-60.07-16.62-73.97-71.89,27.36,2.63,54.13-6.63,76.21,19.68,7.72,9.2,24.28,14.32,37.24,15.27,218.25,15.95,436.57,30.95,654.88,46.03,4.55.31,9.21-1.03,14.77-8.62-12.36-1.67-24.66-4.04-37.08-4.9-206.36-14.17-412.74-28.03-619.08-42.5-11.94-.84-23.55-6.36-35.32-9.7.77-3.24,1.55-6.48,2.32-9.73,62.58,4.42,125.18,8.5,187.72,13.31,216.2,16.62,432.38,33.62,648.62,49.78,7.63.57,15.82-6.28,23.75-9.67-6.68-5.62-12.69-14.91-20.15-16.26-50.82-9.2-101.94-16.74-159.24-25.8,14.64-7.27,23.8-11.82,33.38-16.57-2.25-20.22-3.98-40.03-6.78-59.7-2.6-18.23,4.67-25.68,22.84-25.41,34.33.51,68.67.15,103.01.15.06-2.75.12-5.51.17-8.26-45.57-2.94-91.14-5.88-136.7-8.82.29-3.36.57-6.73.86-10.09h145.82c.46-2.69.93-5.39,1.39-8.08-43.25-27.24-96-4.97-144.22-21.01,2.7-24.24,2.31-50.32,36.85-62.36-3.82,18.34-7.64,36.68-12.36,59.37h136.02c.56-2.63,2.5-7.31,2.38-11.94-1.1-42.44,3.87-83.22,29.36-119.17,13.28-18.72,16.66-34.27,3.12-58.8-23.46-42.5,32.31-126.46,92.01-134.85-40.96,26.74-45.09,63.79-48.91,101.18-.67,6.55-2.65,14.8-7.12,18.84-28.07,25.39-27.49,35.24,7.06,58.52,22.41-58.81,11.88-129.03,62.18-176.96,2.21-2.1,7.05-1.44,17.28-3.2-56.38,57.16-53.64,125.39-55.73,192.39-.78,25.07,11.27,38,36.26,35.98,143.22-11.6,284.6,15.4,427.04,20.41,43.43,1.53,80.86-6.67,112.99-36.51,27.89-25.9,60.32-34.34,98.95-32.08,228.41,13.37,456.93,24.79,685.4,37.27,15.86.87,31.59,4.71,47.3,7.61,145.91,26.89,161.82,188.19,110.97,274.33Zm60.27-414.38c18.11-68.22,36.93-136.7,62.43-202.37,20.05-51.64,56.39-94.35,106.32-122.18,16.04-8.94,33.85-14.69,53.69-16.28-14.38,9.75-29.34,18.77-43.05,29.39-57.94,44.9-96.2,104.83-119.35,172.69-23.46,68.78-40.1,139.89-59.51,210.03-3.13,11.29-5.17,22.88-7.71,34.33-2.41-.39-4.82-.77-7.23-1.16,4.55-34.89,5.47-70.74,14.42-104.46Zm377.83,571.82c-15.77,49.61-39.78,98.8-69.86,141.19-63.55,89.54-151.75,87.01-216.03-2.47-57.67-80.27-78.53-174.04-91.2-269.65-6.67-50.39-8.32-101.44-10.56-130.47,1.15-147.67,16.3-271.34,64.6-388.35,16.15-39.13,37.88-77.75,64.72-110.29,59.99-72.73,139.9-69.3,197.24,5.43,51.94,67.69,74.24,147.72,87.69,230.02,28.87,176.6,28.06,352.66-26.61,524.6Zm-63.51-961.71c-136.3-9.87-217.08,69.92-285.96,173.66-2.71-2.6-5.42-5.21-8.13-7.81,3.03-11.73,4.57-24.1,9.33-35.08,42.58-98.17,124.38-142.32,224.41-157.99,141.61-22.19,284.45,48.73,354.49,173.54,3.17,5.65,5.64,11.7,6.85,18.89-74.59-102.99-174.19-156.02-301-165.2Zm611.22,875.25c-.04-2.17-.08-4.34-.12-6.51,232.69-38.83,465.38-77.66,695.49-116.06,15.21,34.39,29.01,65.62,44.45,100.54-245.13,7.3-492.48,14.67-739.82,22.03Zm54.98-118.09c215.58-40.71,425.56-80.36,635.54-120.01.38,2.95.75,5.91,1.13,8.86-62.2,12.73-124.3,26-186.63,38.09-142.99,27.74-286.07,54.99-429.15,82.28-35.23,6.72-40.75,4.68-38.82-30.77,4.67-85.61,12.83-171.03,19.87-256.51.34-4.14,3.49-8.05,8.71-11.55,1.36,95.31-21.04,189.8-10.65,289.62Zm806.5-415.18c-15.19,9.85-26.15,22.62-38.47,24.11-326.18,39.53-652.44,78.47-978.91,115.55-30.7,3.49-63.16-4.4-94.16-10.33-9.27-1.77-22.61-14.71-22.79-22.8-.2-8.59,11.34-21.68,20.7-25.42,24.77-9.92,50.79-20.74,76.93-22.62,315.84-22.61,631.79-43.73,947.72-64.96,18.82-1.26,37.8-.16,54.44-.16,4.06-11.34,7.37-20.6,10.68-29.86,9.43,4.19,20.49,6.54,27.88,13.05,9.25,8.15,15.48,19.73,23.01,29.82-11.42-2.7-22.84-5.4-27.03-6.39Zm376.36,211.07c-15.43.45-20.95,7.58-24.79,22.98-9.37,37.57-20.34,75.01-34.47,111.01-9.07,23.11-25.85,50.19-53.4,43.63-18.12-4.32-31.97-28.58-46.47-45.03-5.58-6.33-7.65-15.74-11.33-23.76-32.36,13.06-62.86,27.66-94.79,37.71-44.87,14.13-61.92,6.03-65.39-40.32-6.54-87.37-6.94-175.21-8.5-262.89-.1-5.53,11.46-15.59,18.28-16.22,54.22-5.01,108.61-8.25,166.2-12.26,3.91,57.22,8.05,117.72,12.14,178.21.61,8.96-.64,18.39,1.75,26.81,5.36,18.9,2.82,44.74,35.06,43.06,4.88-.25,10.22,8.13,14.85,12.11-11.83,32.91-35.84,14.46-55.69,13.22,12.06,32.84,36.46,40.58,54.71,15.9,17.1-23.13,27.29-51.37,40.52-77.36-2.34-1.62-4.69-3.24-7.03-4.87-8.57,3.61-17.13,7.22-27.17,11.44,27.35-45.55,100.49-62.68,161.29-36.63-27.83,1.23-51.8,2.55-75.78,3.24Zm181.5-207.17c-10.73-22.33-28.65-21.4-47.77-19.82-151.01,12.45-302,25-453.01,37.42-6.66.55-13.41.07-21.19.07-1.76-24.06,15.8-30.45,31.31-33.62,34.05-6.96,68.61-13.33,103.22-15.34,99.51-5.8,199.15-9.67,298.76-13.52,33.17-1.28,66.44-.2,100.11-.2,4.34,15.66,10.15,36.62,17.54,63.3-12.35-7.42-25.29-10.62-28.97-18.28Z"/>
    <path d="m1352.3,1611.96c-.09,0-.18,0-.27-.01-2.09-.82-4.15-2.14-6.22-2.78,1.82,1.05,3.85,2.02,6.13,2.9.12-.03.23-.07.35-.11Z"/>
    <path d="m2560.49,1936.97c-240.63-3.67-481.11-19.63-721.79-19.4-.64,4.47-1.28,8.94-1.93,13.41,10.18,2.7,20.27,7.36,30.55,7.81,134.75,5.93,269.49,12.41,404.3,16.45,141.72,4.25,283.52,6.01,425.28,8.87.02,2.75.05,5.5.07,8.24-45.56,0-91.12.43-136.67-.07-240.83-2.63-481.66-5.2-722.48-8.94-14.95-.23-29.59-10.73-44.66-15.55-18.5-5.92-37.31-10.89-59.78-17.36,22.08-9.98,56.62-.59,54.44-39.58-1.96-34.98-35.42-22.09-57.45-41.31,11.24-6.83,20.27-16.98,29.27-16.95,33.8.1,67.6,3.52,104.06,5.86-2.85,5.07-6.42,9.24-7.59,14-1.72,7.02-1.73,14.45-2.47,21.71,8.2.01,16.58,1.14,24.56-.18,20.85-3.45,41.61-11.85,62.26-11.4,93.88,2.02,187.73,6.02,281.55,10.13,36.78,1.61,67.46-10.39,89.5-39.27,27.35-35.83,62.2-47.92,106.64-47.77,204.11.66,407.34,13.92,609.97,37.66,9.44,1.11,18.73,3.53,28.1,5.34-.08,2.89-.15,5.77-.23,8.66-16.06,0-32.13.3-48.18-.05-101.9-2.18-203.82-7.05-305.67-5.85-62.61.74-125.33,9.02-187.52,17.44-19.59,2.65-39.13,14.66-55.69,26.56-7.38,5.3-11.33,21.8-9.21,31.56,1.35,6.2,16.37,12.06,25.9,13.34,28.16,3.77,56.63,5.18,84.97,7.52-.04,3.05-.08,6.1-.11,9.15Z"/>
    <path d="m1763.2,1944.06c20.64,42.4,54.67,35.26,85.56,35.46,456.63,2.99,913.26,5.66,1369.9,8.4,5.99.04,12.8-1.88,17.79.34,6.92,3.08,12.47,9.23,18.6,14.07-5.94,4-11.44,9.2-17.96,11.62-5.31,1.97-11.85.75-17.84.7-477.61-4.47-955.22-8.92-1432.83-13.53-32.2-.31-36.01-8.08-23.2-57.06Z"/>
    <path d="m3166.28,1891.22c-37.04-5.1-74.07-10.2-113.09-15.57,28.14-31.18,108.5-53.47,142.55-37.72,44.36,20.52,63.58,61.42,74.43,106.51,4.33,17.99-6.94,26.74-22.89,27.69-58.59,3.49-117.24,5.95-175.86,8.8-.11-4.26-.22-8.52-.33-12.78,47.52,0,95.06.8,142.54-.44,16.27-.42,43.52,6.69,43.09-18.52-.48-28.1-27.96-14.78-43.22-14.74-158.86.42-317.71,2.1-476.57,3.26-8.4.06-16.81-1.34-25.21-2.07-.08-3.09-.16-6.19-.24-9.28,151.3-8.05,302.6-16.1,453.9-24.16.3-3.67.61-7.33.91-11Z"/>
    <path d="m2700.97,2083.33c-18.84,0-37.69.01-56.53,0-286.85-.21-573.7-.42-860.55-.64-63.84-.05-69.66-5.88-68.98-69.93.08-7.43,1.64-14.83,6.27-22.27.86,5.59,1.4,11.25,2.62,16.76,8.62,38.67,22.17,50.04,61.95,50.67,183.88,2.91,367.76,5.69,551.64,8.37,111.93,1.64,223.85,2.99,335.78,4.6,9.3.13,18.58,1.32,27.87,2.01-.02,3.48-.05,6.95-.07,10.43Z"/>
    <path d="m1652.4,2043.01c0-20.47-.04-40.93,0-61.4.1-44.87-.68-89.76.65-134.59,1.07-35.99,9.4-48.62,29.8-59.44,1.72,22.64,3.62,47.67,5.52,72.7,3.29.07,6.57.14,9.86.21,3.38-21.42,6.77-42.84,10.15-64.25,2.48-.14,4.96-.29,7.45-.43,2.23,9.36,7.46,19.15,6.19,28.01-6.49,45.12-15.78,89.85-21.99,135.01-10.63,77.21-21.33,154.86,31.2,223.43-38.03-16.86-46.99-52.76-46.52-192.04-9.23,21.02-16.45,37.46-23.68,53.9-2.88-.37-5.76-.74-8.64-1.11Z"/>
    <path d="m1638.46,2071.92c-30.03-3.45-58.19-6.69-86.36-9.93,0-1.76,0-3.52.01-5.29,17.2,0,34.41-.24,51.61.07,17.07.31,24.97-6.63,25.36-24.73.63-29.22,3.44-58.39,9.37-87.34v127.21Z"/>
    <path d="m1634.61,1660.79c-10.27,0-20.55.15-30.81-.02-106.84-1.75-213.67-4.1-320.52-4.77-17.02-.11-35.3,4.56-50.87,11.67-33.13,15.13-62.2,13.27-93.17-6.96-17.24-11.26-39.37-20.33-59.56-20.89-103.79-2.86-207.67-3.18-311.51-3.22-44.4-.02-64.07,25.12-55.62,67.19-28.31-27.02-28.24-28.36,1.91-90.34,30.16,3.02,57.26,7.58,84.45,8.12,101.82,2.04,203.67,2.4,305.49,4.6,9.24.2,19.86,7.33,27.16,14.12,37.86,35.19,52.86,35.23,88.68-.11,5.68-5.61,15.25-11.37,22.44-10.72,61.15,5.54,122.03,15.45,183.26,18.36,69.54,3.31,139.36.76,209.05.76l-.37,12.21Z"/>
    <path d="m2393.81,1587.84c-11.46-23.9-22.24-48.17-34.73-71.52-5.04-9.42-5.97-28.48-26.3-17.79-1.63.85-7.6-4.96-10.57-8.5-51.5-61.55-120.46-94.83-195.51-114.77-72.12-19.16-145.81-32.47-218.77-48.5-9.17-2.01-18.13-4.94-27.19-7.45.56-3.16,1.13-6.32,1.69-9.48,52.6,7.35,106.32,10.26,157.54,23.12,74.02,18.59,148.22,39.55,218.62,68.55,66.4,27.35,114.88,78.4,137.76,149.35,3.49,10.83,5.27,22.21,7.85,33.33-3.46,1.22-6.93,2.43-10.39,3.65Z"/>
    <path d="m850.28,1282.37c113.22-36.35,238.2-53.74,355.01-45.8-113.84,14.69-238.98,30.83-355.01,45.8Z"/>
    <path d="m1491.27,1120.74q49.5-19.89,31.9-63.6c31.37,52.41,84.15,65.62,138.01,76.41,36.15,7.24,73.21,11.03,108.53,21.04,25.75,7.3,49.33,22.24,74.58,38.37-16.12,7.6-28.1,12.97-13.28,29.45-31.95-12.24-63.89-24.48-95.84-36.73.37-1.6.74-3.2,1.11-4.8,10.36.8,20.71,1.6,31.07,2.4-85.44-37.51-176.89-49.18-276.09-62.54Z"/>
    <path d="m1704.11,1203.6c-99.39-9.39-198.78-18.77-298.17-28.16l-1.49-5.22c18.82-7.74,37.21-16.95,56.63-22.68,12.38-3.66,26.36-7.28,34.49,12.25,2.83,6.8,20.26,8.96,31.41,10.64,59.63,8.99,119.38,17.16,179.08,25.62-.65,2.52-1.3,5.04-1.94,7.56Z"/>
    <path d="m1025.6,1191.44c30.95-33.04,66.11-45.12,105.54-48.37-18.38,7.15-36.77,14.29-55.15,21.44.49,3.59.97,7.18,1.46,10.78,94.9-3.58,189.8-7.17,284.7-10.75.1,3.97.19,7.94.29,11.92-110.2,4.9-220.39,9.8-336.84,14.98Z"/>
    <path d="m1444.85,984.43c-14.5-20.01-26.24-36.2-37.43-51.64,32.64,5.28,41.29,15.85,37.43,51.64Z"/>
    <path d="m2502.04,1169.57c24.91-4.6,44.8-8.28,65.8-12.16-6.08,24.36-13.23,50.98-19.29,77.85-6.33,28.09-2.71,54.08,21.45,73.17,24.59,19.43,51.55,15.39,76.08,1.83,23.84-13.18,45.3-30.64,67.81-46.22-1.3-2.6-2.61-5.2-3.91-7.8-14.24,2.93-28.49,5.86-49.09,10.09,12.47-19.09,21.31-32.62,32.01-49-25.72-3.07-47.83-5.7-69.88-8.33-3.09-30.82,43.39-45.64,13.5-82.78,38.63,2.12,71.73,3.93,112.84,6.19-27.29-22.38-50.95-41.42-80.59-41.22-37.81.26-57.34-26.18-87.93-44.49,39.57-18.92,74.39-16,109.07-3.49,91.01,32.84,132.62,119.89,109.44,227.97-13.54,63.16-64.32,115.4-122.13,125.66-56.56,10.03-115.18-19.46-150.59-77.2-29.98-48.91-41.72-100.8-24.61-150.07Z"/>
    <path d="m2871.76,1131.3c54,121.01-34.18,294.26-160.72,319.55-44.22,8.84-84.64-2.79-130.86-28.5,12.77,2.11,17.15,2.4,21.29,3.58,109.75,31.24,213.11-32.3,236.82-145.7,1.43-6.83,2.9-13.71,3.47-20.64,1.97-23.83,1.04-48.25,6.07-71.38,4.17-19.17,15.2-36.86,23.93-56.91Z"/>
    <path d="m2521.6,1073.83c46.62-85.34,161.42-106,239.04-37.96,97.73,85.67,97.65,263.01-.34,348.21-38.5,33.48-82.76,46.29-141.59,34.55,25.72-1.49,43.51-.62,60.54-3.82,82.35-15.46,142.56-100.83,142.72-200.83.16-100.32-59.58-184.82-142.19-201.09-47.4-9.34-88.82,3.36-125.42,33.98-12.22,10.23-24.61,20.26-32.76,26.96Z"/>
    <path d="m2615.33,1280c-49.85-27.58-48.72-107.39,3.13-141.54-6.46,23.66-17.57,47.22-18.08,71-.5,23.66,9.65,47.55,14.95,70.53Z"/>
    <path d="m2683.83,982.73c-36.06,6.3-80.01,13.97-117.3,20.48,31.47-34.25,69.18-40.4,117.3-20.48Z"/>
    <path d="m3730.57,1884.58c-2.88,140.92-11.6,251.62-53.18,356.02-16.75,42.05-38.94,83.89-67.14,119.01-54.54,67.94-127.22,66.17-183.26-.54-49.6-59.04-72.06-130.7-86.59-204.69-35.89-182.79-30.32-364.03,32.62-540.31,16.74-46.89,42.93-93.09,74.73-131.33,52.29-62.87,125.12-58.14,176.82,5.41,52.79,64.89,74.39,143.24,87.2,223.45,10.68,66.86,14.81,134.76,18.79,172.98Zm-15.36,29.54c-6.62-62.48-10.4-125.43-20.6-187.32-11.9-72.2-31.1-143.08-81.25-200.03-50.76-57.63-118.33-58.54-162.98,3.27-28.67,39.68-51.81,85.93-66.49,132.66-48.25,153.58-50.29,310.6-20.52,468.07,13.05,68.99,32.12,136.48,76.82,192.92,45.47,57.41,104.51,62.6,153.23,8.02,27.9-31.25,50.08-69.96,66.22-108.89,40.74-98.26,50.52-202.84,55.58-308.71Z"/>
    <path d="m4012.68,885.36c-21.77,4.51-43.51,12.53-65.33,12.74-35.38.34-69.2,13.68-107.37-6.15-28.27-14.68-68.41-5.84-103.1-9.14-12.56-1.19-24.66-7.18-42.71-12.76h317.61c.3,5.1.61,10.2.91,15.31Z"/>
    <path d="m3702.54,840.89c86.84-27.85,172.94-5.12,259.12,9.35h-259.26c.05-3.12.09-6.24.14-9.35Z"/>
    <path d="m2674.44,1639.12c5.68-8.48,9.61-13.78,12.92-19.44,6.02-10.27,11.67-20.75,17.48-31.15-10.26-3.97-20.51-7.99-30.8-11.9-2.59-.98-5.31-1.63-9.65-2.94,7.21-25.82,29.25-18.27,39.94-12.7,12.38,6.45,24.92,22.62,27.07,36.2,2.9,18.34-27.68,40.05-56.97,41.93Z"/>
    <path d="m3363.17,1933.08c2.16-88.69,11.09-176.06,44.68-258.71,11.86-29.19,27.8-57.99,47.47-82.48,37.64-46.88,93.64-48.62,130.65-1.2,23.91,30.63,43.57,68.02,53.56,105.47,40.61,152.3,34.32,304.78-12.25,455.09-8.74,28.21-22.39,55.99-38.91,80.51-50,74.25-121.86,73.3-161.04-6.46-25.93-52.8-40.11-112.22-53.41-170.09-9.07-39.45-7.54-81.34-10.75-122.14Zm157.23-319.62c-70.63,40-103.05,106.77-121.64,173.55-29.17,104.8-22.75,214.01,4.01,319.9,9.62,38.05,25.18,76.13,45.62,109.56,31.25,51.11,79.41,51.95,117.74,5.37,13.72-16.68,25.7-36.14,33.3-56.29,58.18-154.22,64.55-311.45,19.36-469.63-8.43-29.5-26.85-57.98-46.72-81.9-22.68-27.3-51.85-28.24-79.43-10.53,8.22,2.95,15.93,5.71,27.75,9.96Z"/>
    <path d="m3402.38,1929.72c11.81-64.48,21.88-129.34,36.33-193.22,5.33-23.57,18.42-46.59,32.46-66.73,29.75-42.7,74.02-43.17,102.16.97,17.29,27.12,30.11,59.06,36.87,90.56,23.62,110.06,20.31,220.48-10.16,328.86-8.72,31-23.69,61.89-42.5,88-26.08,36.22-65.69,33.42-92.4-2.59-33.35-44.96-42.41-98.44-49.6-151.97-4.11-30.59-4.84-61.64-7.09-92.48l-6.06-1.4Zm73.74,47.09c10.7,26.2,21.36,58.3,36.8,87.89,9.25,17.73,29.27,29.25,47.33,11.74,20.78-20.15,44.29-41.67,45.05-73.58,1.54-64.6,4.86-129.62-.75-193.76-3.37-38.5-18.55-77.36-35.21-112.88-14.97-31.92-39.13-36.45-63.9-25.48-3.7,11.51-4.15,21.05-9.03,26.83-44.13,52.21-71.34,110.1-72.8,180.29-.67,32.11-2.62,61.98,24.46,84.36,7.38,6.1,17.31,9.13,28.06,14.57Zm-41.45,60.94c-2.51,1.26-5.01,2.51-7.52,3.77,13.35,35.86,24.93,72.52,40.73,107.26,9.24,20.32,26.98,36.14,52.65,30.15,27.14-6.34,39.21-27.65,47.52-51.3-48.11,51.98-77.3,47.92-106.87-17.51-10.55-23.34-17.77-48.2-26.51-72.36Z"/>
    <path d="m3492.11,1858.88c8.02-22.19,13.14-46.14,25.1-65.95,7.54-12.49,25.43-25.88,38.48-25.69,10.72.16,22.48,18.8,31.22,31.07,5.21,7.32,5.48,18.16,9.33,32.46-50.41-48.33-56.84-46-104.13,28.11Z"/>
    <path d="m3565.92,2055.33c-11.38,2.61-29.51,10.95-32.98,6.85-15.78-18.61-27.42-40.72-36.47-64.38,21.35,19.58,25.26,59.1,69.18,47.24.09,3.43.18,6.86.26,10.29Z"/>
    <path d="m3554.39,1748.74c-56.83,15.85-53.82,69.31-70.58,107.79,1.18-69.66,33.92-121.48,70.58-107.79Z"/>
  </g>
</svg>